{
  "source": "C:\\Users\\Peter\\Desktop\\stuff\\MIUN\\quantitative_research\\video_compression\\videos\\BVI-HD\\BVI-HD_CDVL_videos\\ORIG\\MartialArts_1920x1080_60fps.mp4",
  "output": "C:\\Users\\Peter\\Desktop\\stuff\\MIUN\\quantitative_research\\video_compression\\compressed_videos\\BVI-HD\\hevc\\1.5\\MartialArts_1920x1080_60fps_hevc.mp4",
  "codec": "hevc",
  "ok": "Input #0, mov,mp4,m4a,3gp,3g2,mj2, from 'C:\\Users\\Peter\\Desktop\\stuff\\MIUN\\quantitative_research\\video_compression\\videos\\BVI-HD\\BVI-HD_CDVL_videos\\ORIG\\MartialArts_1920x1080_60fps.mp4':\n  Metadata:\n    major_brand     : isom\n    minor_version   : 512\n    compatible_brands: isomiso2avc1mp41\n    encoder         : Lavf54.28.101\n  Duration: 00:00:05.00, start: 0.000000, bitrate: 120609 kb/s\n  Stream #0:0[0x1](und): Video: h264 (High 4:4:4 Predictive) (avc1 / 0x31637661), yuv420p(progressive), 1920x1080, 120605 kb/s, 60 fps, 60 tbr, 60 tbn (default)\n    Metadata:\n      handler_name    : VideoHandler\n      vendor_id       : [0][0][0][0]\n[out#0/mp4 @ 000001fd83eeabc0] Codec AVOption b:a (set bitrate (in bits/s)) has not been used for any stream. The most likely reason is either wrong type (e.g. a video option with no video streams) or that it is a private option of some decoder which was not actually used for any stream.\nStream mapping:\n  Stream #0:0 -> #0:0 (h264 (native) -> hevc (libx265))\nPress [q] to stop, [?] for help\n[libx265 @ 000001fd844c0940] Unknown option: \"aq-mode.\nx265 [info]: HEVC encoder version 4.1+190-8f11c33ac\nx265 [info]: build info [Windows][GCC 15.1.0][64 bit] 10bit\nx265 [info]: using cpu capabilities: MMX2 SSE2Fast LZCNT SSSE3 SSE4.2 AVX FMA3 BMI2 AVX2\nx265 [info]: Main 10 profile, Level-4.1 (Main tier)\nx265 [info]: Thread pool created using 12 threads\nx265 [info]: Slices                              : 1\nx265 [info]: frame threads / pool features       : 3 / wpp(17 rows)\nx265 [info]: Coding QT: max CU size, min CU size : 64 / 8\nx265 [info]: Residual QT: max TU size, max depth : 32 / 1 inter / 1 intra\nx265 [info]: ME / range / subpel / merge         : star / 57 / 3 / 3\nx265 [info]: Keyframe min / max / scenecut / bias  : 25 / 250 / 40 / 5.00 \nx265 [info]: Lookahead / bframes / badapt        : 25 / 4 / 2\nx265 [info]: b-pyramid / weightp / weightb       : 1 / 1 / 0\nx265 [info]: References / ref-limit  cu / depth  : 4 / on / on\nx265 [info]: AQ: mode / str / qg-size / cu-tree  : 2 / 1.0 / 32 / 1\nx265 [info]: Rate Control / qCompress            : ABR-1500 kbps / 0.60\nx265 [info]: VBV/HRD buffer / max-rate / init    : 1500 / 1500 / 0.750\nx265 [info]: tools: rect limit-modes rd=4 psy-rd=2.00 rdoq=2 psy-rdoq=1.00\nx265 [info]: tools: rskip mode=1 signhide tmvp strong-intra-smoothing lslices=4\nx265 [info]: tools: deblock sao dhdr10-info\nOutput #0, mp4, to 'C:\\Users\\Peter\\Desktop\\stuff\\MIUN\\quantitative_research\\video_compression\\compressed_videos\\BVI-HD\\hevc\\1.5\\MartialArts_1920x1080_60fps_hevc.mp4':\n  Metadata:\n    major_brand     : isom\n    minor_version   : 512\n    compatible_brands: isomiso2avc1mp41\n    encoder         : Lavf62.3.100\n  Stream #0:0(und): Video: hevc (hev1 / 0x31766568), yuv420p10le(tv, progressive), 1920x1080, q=2-31, 1500 kb/s, 60 fps, 15360 tbn (default)\n    Metadata:\n      encoder         : Lavc62.11.100 libx265\n      handler_name    : VideoHandler\n      vendor_id       : [0][0][0][0]\n    Side data:\n      cpb: bitrate max/min/avg: 1500000/0/1500000 buffer size: 1500000 vbv_delay: N/A\nframe=    0 fps=0.0 q=0.0 size=       0KiB time=N/A bitrate=N/A speed=N/A elapsed=0:00:01.14    \nframe=    0 fps=0.0 q=0.0 size=       0KiB time=N/A bitrate=N/A speed=N/A elapsed=0:00:01.68    \nframe=    0 fps=0.0 q=0.0 size=       0KiB time=N/A bitrate=N/A speed=N/A elapsed=0:00:02.19    \nframe=    0 fps=0.0 q=0.0 size=       0KiB time=N/A bitrate=N/A speed=N/A elapsed=0:00:02.71    \nframe=    0 fps=0.0 q=0.0 size=       0KiB time=N/A bitrate=N/A speed=N/A elapsed=0:00:03.25    \nframe=    0 fps=0.0 q=0.0 size=       0KiB time=N/A bitrate=N/A speed=N/A elapsed=0:00:03.79    \nframe=    0 fps=0.0 q=0.0 size=       0KiB time=N/A bitrate=N/A speed=N/A elapsed=0:00:04.37    \nframe=    0 fps=0.0 q=0.0 size=       0KiB time=N/A bitrate=N/A speed=N/A elapsed=0:00:04.90    \nframe=    0 fps=0.0 q=0.0 size=       0KiB time=N/A bitrate=N/A speed=N/A elapsed=0:00:05.44    \nframe=    0 fps=0.0 q=0.0 size=       0KiB time=N/A bitrate=N/A speed=N/A elapsed=0:00:05.95    \nframe=    0 fps=0.0 q=0.0 size=       0KiB time=N/A bitrate=N/A speed=N/A elapsed=0:00:06.47    \nframe=    1 fps=0.1 q=39.8 size=       0KiB time=-00:00:00.01 bitrate=N/A speed=N/A elapsed=0:00:07.00    \nframe=    1 fps=0.1 q=39.8 size=       0KiB time=-00:00:00.01 bitrate=N/A speed=N/A elapsed=0:00:07.52    \nframe=    2 fps=0.2 q=44.5 size=       0KiB time=00:00:00.00 bitrate=N/A speed=   0x elapsed=0:00:08.05    \nframe=    2 fps=0.2 q=44.5 size=       0KiB time=00:00:00.00 bitrate=N/A speed=   0x elapsed=0:00:08.61    \nframe=    2 fps=0.2 q=44.5 size=       0KiB time=00:00:00.00 bitrate=N/A speed=   0x elapsed=0:00:09.14    \nframe=    2 fps=0.2 q=44.5 size=       0KiB time=00:00:00.00 bitrate=N/A speed=   0x elapsed=0:00:09.69    \nframe=    2 fps=0.2 q=44.5 size=       0KiB time=00:00:00.00 bitrate=N/A speed=   0x elapsed=0:00:10.25    \nframe=    3 fps=0.3 q=43.3 size=       0KiB time=00:00:00.01 bitrate=  21.1kbits/s speed=0.00155x elapsed=0:00:10.77    \nframe=    3 fps=0.3 q=43.3 size=       0KiB time=00:00:00.01 bitrate=  21.1kbits/s speed=0.00147x elapsed=0:00:11.31    \nframe=    4 fps=0.3 q=42.6 size=       0KiB time=00:00:00.03 bitrate=  10.6kbits/s speed=0.00281x elapsed=0:00:11.84    \nframe=    5 fps=0.4 q=42.6 size=       0KiB time=00:00:00.05 bitrate=   7.0kbits/s speed=0.00404x elapsed=0:00:12.37    \nframe=    5 fps=0.4 q=42.6 size=       0KiB time=00:00:00.05 bitrate=   7.0kbits/s speed=0.00387x elapsed=0:00:12.91    \nframe=    6 fps=0.4 q=42.6 size=       0KiB time=00:00:00.06 bitrate=   5.3kbits/s speed=0.00494x elapsed=0:00:13.48    \nframe=    8 fps=0.6 q=39.3 size=       0KiB time=00:00:00.10 bitrate=   3.5kbits/s speed=0.00713x elapsed=0:00:14.01    \nframe=    8 fps=0.5 q=39.3 size=       0KiB time=00:00:00.10 bitrate=   3.5kbits/s speed=0.00687x elapsed=0:00:14.55    \nframe=    8 fps=0.5 q=39.3 size=       0KiB time=00:00:00.10 bitrate=   3.5kbits/s speed=0.00663x elapsed=0:00:15.07    \nframe=    9 fps=0.6 q=40.7 size=       0KiB time=00:00:00.11 bitrate=   3.0kbits/s speed=0.00748x elapsed=0:00:15.59    \nframe=    9 fps=0.6 q=40.7 size=       0KiB time=00:00:00.11 bitrate=   3.0kbits/s speed=0.00724x elapsed=0:00:16.11    \nframe=   10 fps=0.6 q=37.1 size=       0KiB time=00:00:00.13 bitrate=   2.6kbits/s speed=0.00801x elapsed=0:00:16.65    \nframe=   11 fps=0.6 q=37.0 size=       0KiB time=00:00:00.15 bitrate=   2.3kbits/s speed=0.00873x elapsed=0:00:17.17    \nframe=   11 fps=0.6 q=37.0 size=       0KiB time=00:00:00.15 bitrate=   2.3kbits/s speed=0.00846x elapsed=0:00:17.72    \nframe=   11 fps=0.6 q=37.0 size=       0KiB time=00:00:00.15 bitrate=   2.3kbits/s speed=0.00821x elapsed=0:00:18.26    \nframe=   12 fps=0.6 q=31.4 size=       0KiB time=00:00:00.16 bitrate=   2.1kbits/s speed=0.00885x elapsed=0:00:18.82    \nframe=   12 fps=0.6 q=31.4 size=       0KiB time=00:00:00.16 bitrate=   2.1kbits/s speed=0.00861x elapsed=0:00:19.36    \nframe=   12 fps=0.6 q=31.4 size=       0KiB time=00:00:00.16 bitrate=   2.1kbits/s speed=0.00837x elapsed=0:00:19.92    \nframe=   13 fps=0.6 q=36.4 size=       0KiB time=00:00:00.18 bitrate=   1.9kbits/s speed=0.00896x elapsed=0:00:20.45    \nframe=   14 fps=0.7 q=36.0 size=       0KiB time=00:00:00.20 bitrate=   1.8kbits/s speed=0.00954x elapsed=0:00:20.97    \nframe=   14 fps=0.7 q=36.0 size=       0KiB time=00:00:00.20 bitrate=   1.8kbits/s speed=0.0093x elapsed=0:00:21.49    \nframe=   14 fps=0.6 q=36.0 size=       0KiB time=00:00:00.20 bitrate=   1.8kbits/s speed=0.00908x elapsed=0:00:22.03    \nframe=   14 fps=0.6 q=36.0 size=       0KiB time=00:00:00.20 bitrate=   1.8kbits/s speed=0.00887x elapsed=0:00:22.55    \nframe=   15 fps=0.7 q=37.6 size=       0KiB time=00:00:00.21 bitrate=   1.6kbits/s speed=0.00939x elapsed=0:00:23.07    \nframe=   16 fps=0.7 q=37.9 size=       0KiB time=00:00:00.23 bitrate=   1.5kbits/s speed=0.00988x elapsed=0:00:23.62    \nframe=   16 fps=0.7 q=37.9 size=       0KiB time=00:00:00.23 bitrate=   1.5kbits/s speed=0.00966x elapsed=0:00:24.16    \nframe=   16 fps=0.6 q=37.9 size=       0KiB time=00:00:00.23 bitrate=   1.5kbits/s speed=0.00944x elapsed=0:00:24.70    \nframe=   17 fps=0.7 q=31.4 size=       0KiB time=00:00:00.25 bitrate=   1.4kbits/s speed=0.00991x elapsed=0:00:25.22    \nframe=   17 fps=0.7 q=31.4 size=       0KiB time=00:00:00.25 bitrate=   1.4kbits/s speed=0.00971x elapsed=0:00:25.74    \nframe=   17 fps=0.6 q=31.4 size=       0KiB time=00:00:00.25 bitrate=   1.4kbits/s speed=0.00952x elapsed=0:00:26.26    \nframe=   17 fps=0.6 q=31.4 size=       0KiB time=00:00:00.25 bitrate=   1.4kbits/s speed=0.00932x elapsed=0:00:26.82    \nframe=   18 fps=0.7 q=37.8 size=       0KiB time=00:00:00.26 bitrate=   1.3kbits/s speed=0.00975x elapsed=0:00:27.33    \nframe=   19 fps=0.7 q=37.5 size=       0KiB time=00:00:00.28 bitrate=   1.2kbits/s speed=0.0102x elapsed=0:00:27.84    \nframe=   19 fps=0.7 q=37.5 size=       0KiB time=00:00:00.28 bitrate=   1.2kbits/s speed=0.00997x elapsed=0:00:28.42    \nframe=   20 fps=0.7 q=35.9 size=       0KiB time=00:00:00.30 bitrate=   1.2kbits/s speed=0.0104x elapsed=0:00:28.97    \nframe=   20 fps=0.7 q=35.9 size=       0KiB time=00:00:00.30 bitrate=   1.2kbits/s speed=0.0102x elapsed=0:00:29.50    \nframe=   20 fps=0.7 q=35.9 size=       0KiB time=00:00:00.30 bitrate=   1.2kbits/s speed=0.00999x elapsed=0:00:30.03    \nframe=   20 fps=0.7 q=35.9 size=       0KiB time=00:00:00.30 bitrate=   1.2kbits/s speed=0.0098x elapsed=0:00:30.59    \nframe=   20 fps=0.6 q=35.9 size=       0KiB time=00:00:00.30 bitrate=   1.2kbits/s speed=0.00962x elapsed=0:00:31.19    \nframe=   20 fps=0.6 q=35.9 size=       0KiB time=00:00:00.30 bitrate=   1.2kbits/s speed=0.00943x elapsed=0:00:31.80    \nframe=   21 fps=0.6 q=35.7 size=       0KiB time=00:00:00.31 bitrate=   1.1kbits/s speed=0.00978x elapsed=0:00:32.37    \nframe=   21 fps=0.6 q=35.7 size=       0KiB time=00:00:00.31 bitrate=   1.1kbits/s speed=0.00961x elapsed=0:00:32.93    \nframe=   21 fps=0.6 q=35.7 size=       0KiB time=00:00:00.31 bitrate=   1.1kbits/s speed=0.00945x elapsed=0:00:33.52    \nframe=   21 fps=0.6 q=35.7 size=       0KiB time=00:00:00.31 bitrate=   1.1kbits/s speed=0.00929x elapsed=0:00:34.09    \nframe=   21 fps=0.6 q=35.7 size=       0KiB time=00:00:00.31 bitrate=   1.1kbits/s speed=0.00914x elapsed=0:00:34.66    \nframe=   22 fps=0.6 q=29.8 size=       0KiB time=00:00:00.33 bitrate=   1.1kbits/s speed=0.00947x elapsed=0:00:35.19    \nframe=   23 fps=0.6 q=35.4 size=       0KiB time=00:00:00.35 bitrate=   1.0kbits/s speed=0.0098x elapsed=0:00:35.71    \nframe=   24 fps=0.7 q=35.6 size=       0KiB time=00:00:00.36 bitrate=   1.0kbits/s speed=0.0101x elapsed=0:00:36.22    \nframe=   24 fps=0.7 q=35.6 size=       0KiB time=00:00:00.36 bitrate=   1.0kbits/s speed=0.00998x elapsed=0:00:36.73    \nframe=   24 fps=0.6 q=35.6 size=       0KiB time=00:00:00.36 bitrate=   1.0kbits/s speed=0.00984x elapsed=0:00:37.25    \nframe=   26 fps=0.7 q=34.1 size=       0KiB time=00:00:00.40 bitrate=   0.9kbits/s speed=0.0106x elapsed=0:00:37.76    \nframe=   26 fps=0.7 q=34.1 size=       0KiB time=00:00:00.40 bitrate=   0.9kbits/s speed=0.0104x elapsed=0:00:38.29    \nframe=   27 fps=0.7 q=29.1 size=       0KiB time=00:00:00.41 bitrate=   0.8kbits/s speed=0.0107x elapsed=0:00:38.83    \nframe=   28 fps=0.7 q=34.1 size=       0KiB time=00:00:00.43 bitrate=   0.8kbits/s speed=0.011x elapsed=0:00:39.35    \nframe=   29 fps=0.7 q=34.6 size=       0KiB time=00:00:00.45 bitrate=   0.8kbits/s speed=0.0113x elapsed=0:00:39.86    \nframe=   29 fps=0.7 q=34.6 size=       0KiB time=00:00:00.45 bitrate=   0.8kbits/s speed=0.0111x elapsed=0:00:40.39    \nframe=   30 fps=0.7 q=33.7 size=       0KiB time=00:00:00.46 bitrate=   0.8kbits/s speed=0.0114x elapsed=0:00:40.92    \nframe=   31 fps=0.7 q=33.3 size=       0KiB time=00:00:00.48 bitrate=   0.7kbits/s speed=0.0117x elapsed=0:00:41.44    \nframe=   32 fps=0.8 q=28.6 size=       0KiB time=00:00:00.50 bitrate=   0.7kbits/s speed=0.0119x elapsed=0:00:41.95    \nframe=   33 fps=0.8 q=32.2 size=       0KiB time=00:00:00.51 bitrate=   0.7kbits/s speed=0.0122x elapsed=0:00:42.47    \nframe=   33 fps=0.8 q=32.2 size=       0KiB time=00:00:00.51 bitrate=   0.7kbits/s speed=0.012x elapsed=0:00:42.98    \nframe=   34 fps=0.8 q=35.7 size=       0KiB time=00:00:00.53 bitrate=   0.7kbits/s speed=0.0123x elapsed=0:00:43.51    \nframe=   35 fps=0.8 q=33.3 size=       0KiB time=00:00:00.55 bitrate=   0.6kbits/s speed=0.0125x elapsed=0:00:44.04    \nframe=   36 fps=0.8 q=28.6 size=       0KiB time=00:00:00.56 bitrate=   0.6kbits/s speed=0.0127x elapsed=0:00:44.57    \nframe=   37 fps=0.8 q=31.6 size=       0KiB time=00:00:00.58 bitrate=   0.6kbits/s speed=0.0129x elapsed=0:00:45.08    \nframe=   38 fps=0.8 q=34.3 size=       0KiB time=00:00:00.60 bitrate=   0.6kbits/s speed=0.0132x elapsed=0:00:45.59    \nframe=   38 fps=0.8 q=34.3 size=       0KiB time=00:00:00.60 bitrate=   0.6kbits/s speed=0.013x elapsed=0:00:46.12    \nframe=   39 fps=0.8 q=33.1 size=       0KiB time=00:00:00.61 bitrate=   0.6kbits/s speed=0.0132x elapsed=0:00:46.64    \nframe=   40 fps=0.8 q=33.4 size=       0KiB time=00:00:00.63 bitrate=   0.6kbits/s speed=0.0134x elapsed=0:00:47.16    \nframe=   41 fps=0.9 q=28.2 size=       0KiB time=00:00:00.65 bitrate=   0.5kbits/s speed=0.0136x elapsed=0:00:47.67    \nframe=   42 fps=0.9 q=31.8 size=       0KiB time=00:00:00.66 bitrate=   0.5kbits/s speed=0.0138x elapsed=0:00:48.20    \nframe=   42 fps=0.9 q=31.8 size=       0KiB time=00:00:00.66 bitrate=   0.5kbits/s speed=0.0137x elapsed=0:00:48.74    \nframe=   43 fps=0.9 q=34.2 size=       0KiB time=00:00:00.68 bitrate=   0.5kbits/s speed=0.0139x elapsed=0:00:49.27    \nframe=   43 fps=0.9 q=34.2 size=       0KiB time=00:00:00.68 bitrate=   0.5kbits/s speed=0.0137x elapsed=0:00:49.78    \nframe=   44 fps=0.9 q=33.5 size=       0KiB time=00:00:00.70 bitrate=   0.5kbits/s speed=0.0139x elapsed=0:00:50.30    \nframe=   44 fps=0.9 q=33.5 size=       0KiB time=00:00:00.70 bitrate=   0.5kbits/s speed=0.0138x elapsed=0:00:50.83    \nframe=   45 fps=0.9 q=28.8 size=       0KiB time=00:00:00.71 bitrate=   0.5kbits/s speed=0.014x elapsed=0:00:51.34    \nframe=   45 fps=0.9 q=28.8 size=       0KiB time=00:00:00.71 bitrate=   0.5kbits/s speed=0.0138x elapsed=0:00:51.86    \nframe=   45 fps=0.9 q=28.8 size=       0KiB time=00:00:00.71 bitrate=   0.5kbits/s speed=0.0137x elapsed=0:00:52.40    \nframe=   45 fps=0.9 q=28.8 size=       0KiB time=00:00:00.71 bitrate=   0.5kbits/s speed=0.0135x elapsed=0:00:52.90    \nframe=   46 fps=0.9 q=28.9 size=       0KiB time=00:00:00.73 bitrate=   0.5kbits/s speed=0.0137x elapsed=0:00:53.43    \nframe=   46 fps=0.9 q=28.9 size=       0KiB time=00:00:00.73 bitrate=   0.5kbits/s speed=0.0136x elapsed=0:00:53.95    \nframe=   47 fps=0.9 q=34.2 size=       0KiB time=00:00:00.75 bitrate=   0.5kbits/s speed=0.0138x elapsed=0:00:54.48    \nframe=   47 fps=0.9 q=34.2 size=       0KiB time=00:00:00.75 bitrate=   0.5kbits/s speed=0.0136x elapsed=0:00:55.00    \nframe=   48 fps=0.9 q=28.7 size=       0KiB time=00:00:00.76 bitrate=   0.5kbits/s speed=0.0138x elapsed=0:00:55.53    \nframe=   48 fps=0.9 q=28.7 size=       0KiB time=00:00:00.76 bitrate=   0.5kbits/s speed=0.0137x elapsed=0:00:56.06    \nframe=   49 fps=0.9 q=32.6 size=       0KiB time=00:00:00.78 bitrate=   0.4kbits/s speed=0.0138x elapsed=0:00:56.59    \nframe=   50 fps=0.9 q=34.3 size=       0KiB time=00:00:00.80 bitrate=   0.4kbits/s speed=0.014x elapsed=0:00:57.11    \nframe=   50 fps=0.9 q=34.3 size=       0KiB time=00:00:00.80 bitrate=   0.4kbits/s speed=0.0139x elapsed=0:00:57.64    \nframe=   51 fps=0.9 q=34.8 size=       0KiB time=00:00:00.81 bitrate=   0.4kbits/s speed=0.014x elapsed=0:00:58.16    \nframe=   52 fps=0.9 q=34.7 size=       0KiB time=00:00:00.83 bitrate=   0.4kbits/s speed=0.0142x elapsed=0:00:58.68    \nframe=   53 fps=0.9 q=31.2 size=       0KiB time=00:00:00.85 bitrate=   0.4kbits/s speed=0.0144x elapsed=0:00:59.20    \nframe=   53 fps=0.9 q=31.2 size=       0KiB time=00:00:00.85 bitrate=   0.4kbits/s speed=0.0142x elapsed=0:00:59.72    \nframe=   54 fps=0.9 q=32.3 size=       0KiB time=00:00:00.86 bitrate=   0.4kbits/s speed=0.0144x elapsed=0:01:00.25    \nframe=   54 fps=0.9 q=32.3 size=       0KiB time=00:00:00.86 bitrate=   0.4kbits/s speed=0.0143x elapsed=0:01:00.77    \nframe=   55 fps=0.9 q=35.1 size=       0KiB time=00:00:00.88 bitrate=   0.4kbits/s speed=0.0144x elapsed=0:01:01.30    \nframe=   55 fps=0.9 q=35.1 size=       0KiB time=00:00:00.88 bitrate=   0.4kbits/s speed=0.0143x elapsed=0:01:01.81    \nframe=   56 fps=0.9 q=35.1 size=       0KiB time=00:00:00.90 bitrate=   0.4kbits/s speed=0.0144x elapsed=0:01:02.33    \nframe=   56 fps=0.9 q=35.1 size=       0KiB time=00:00:00.90 bitrate=   0.4kbits/s speed=0.0143x elapsed=0:01:02.87    \nframe=   56 fps=0.9 q=35.1 size=       0KiB time=00:00:00.90 bitrate=   0.4kbits/s speed=0.0142x elapsed=0:01:03.41    \nframe=   56 fps=0.9 q=35.1 size=       0KiB time=00:00:00.90 bitrate=   0.4kbits/s speed=0.0141x elapsed=0:01:03.98    \nframe=   56 fps=0.9 q=35.1 size=       0KiB time=00:00:00.90 bitrate=   0.4kbits/s speed=0.0139x elapsed=0:01:04.51    \nframe=   58 fps=0.9 q=33.0 size=       0KiB time=00:00:00.91 bitrate=   0.4kbits/s speed=0.0141x elapsed=0:01:05.05    \nframe=   58 fps=0.9 q=33.0 size=       0KiB time=00:00:00.93 bitrate=   0.4kbits/s speed=0.0142x elapsed=0:01:05.62    \nframe=   58 fps=0.9 q=33.0 size=       0KiB time=00:00:00.93 bitrate=   0.4kbits/s speed=0.0141x elapsed=0:01:06.15    \nframe=   58 fps=0.9 q=33.0 size=       0KiB time=00:00:00.93 bitrate=   0.4kbits/s speed=0.014x elapsed=0:01:06.68    \nframe=   58 fps=0.9 q=33.0 size=       0KiB time=00:00:00.93 bitrate=   0.4kbits/s speed=0.0139x elapsed=0:01:07.20    \nframe=   59 fps=0.9 q=35.9 size=       0KiB time=00:00:00.95 bitrate=   0.4kbits/s speed=0.014x elapsed=0:01:07.73    \nframe=   59 fps=0.9 q=35.9 size=       0KiB time=00:00:00.95 bitrate=   0.4kbits/s speed=0.0139x elapsed=0:01:08.29    \nframe=   59 fps=0.9 q=35.9 size=       0KiB time=00:00:00.95 bitrate=   0.4kbits/s speed=0.0138x elapsed=0:01:08.83    \nframe=   59 fps=0.9 q=35.9 size=       0KiB time=00:00:00.95 bitrate=   0.4kbits/s speed=0.0137x elapsed=0:01:09.38    \nframe=   59 fps=0.8 q=35.9 size=       0KiB time=00:00:00.95 bitrate=   0.4kbits/s speed=0.0136x elapsed=0:01:09.94    \nframe=   59 fps=0.8 q=35.9 size=       0KiB time=00:00:00.95 bitrate=   0.4kbits/s speed=0.0135x elapsed=0:01:10.50    \nframe=   60 fps=0.8 q=35.4 size=       0KiB time=00:00:00.96 bitrate=   0.4kbits/s speed=0.0136x elapsed=0:01:11.03    \nframe=   60 fps=0.8 q=35.4 size=       0KiB time=00:00:00.96 bitrate=   0.4kbits/s speed=0.0135x elapsed=0:01:11.57    \nframe=   60 fps=0.8 q=35.4 size=       0KiB time=00:00:00.96 bitrate=   0.4kbits/s speed=0.0134x elapsed=0:01:12.08    \nframe=   60 fps=0.8 q=35.4 size=       0KiB time=00:00:00.96 bitrate=   0.4kbits/s speed=0.0133x elapsed=0:01:12.68    \nframe=   61 fps=0.8 q=30.9 size=       0KiB time=00:00:00.98 bitrate=   0.4kbits/s speed=0.0134x elapsed=0:01:13.27    \nframe=   61 fps=0.8 q=30.9 size=       0KiB time=00:00:00.98 bitrate=   0.4kbits/s speed=0.0133x elapsed=0:01:13.91    \nframe=   61 fps=0.8 q=30.9 size=       0KiB time=00:00:00.98 bitrate=   0.4kbits/s speed=0.0132x elapsed=0:01:14.54    \nframe=   61 fps=0.8 q=30.9 size=       0KiB time=00:00:00.98 bitrate=   0.4kbits/s speed=0.0131x elapsed=0:01:15.10    \nframe=   62 fps=0.8 q=33.6 size=       0KiB time=00:00:01.00 bitrate=   0.4kbits/s speed=0.0132x elapsed=0:01:15.65    \nframe=   62 fps=0.8 q=33.6 size=       0KiB time=00:00:01.00 bitrate=   0.4kbits/s speed=0.0131x elapsed=0:01:16.21    \nframe=   62 fps=0.8 q=33.6 size=       0KiB time=00:00:01.00 bitrate=   0.4kbits/s speed=0.013x elapsed=0:01:16.75    \nframe=   62 fps=0.8 q=33.6 size=       0KiB time=00:00:01.00 bitrate=   0.4kbits/s speed=0.0129x elapsed=0:01:17.27    \nframe=   62 fps=0.8 q=33.6 size=       0KiB time=00:00:01.00 bitrate=   0.4kbits/s speed=0.0129x elapsed=0:01:17.79    \nframe=   62 fps=0.8 q=33.6 size=       0KiB time=00:00:01.00 bitrate=   0.4kbits/s speed=0.0128x elapsed=0:01:18.33    \nframe=   63 fps=0.8 q=35.9 size=       0KiB time=00:00:01.01 bitrate=   0.3kbits/s speed=0.0129x elapsed=0:01:18.86    \nframe=   63 fps=0.8 q=35.9 size=       0KiB time=00:00:01.01 bitrate=   0.3kbits/s speed=0.0128x elapsed=0:01:19.38    \nframe=   63 fps=0.8 q=35.9 size=       0KiB time=00:00:01.01 bitrate=   0.3kbits/s speed=0.0127x elapsed=0:01:19.91    \nframe=   64 fps=0.8 q=36.0 size=       0KiB time=00:00:01.03 bitrate=   0.3kbits/s speed=0.0128x elapsed=0:01:20.45    \nframe=   65 fps=0.8 q=31.5 size=       0KiB time=00:00:01.05 bitrate=   0.3kbits/s speed=0.013x elapsed=0:01:21.00    \nframe=   66 fps=0.8 q=33.5 size=       0KiB time=00:00:01.06 bitrate=   0.3kbits/s speed=0.0131x elapsed=0:01:21.52    \nframe=   66 fps=0.8 q=33.5 size=       0KiB time=00:00:01.06 bitrate=   0.3kbits/s speed=0.013x elapsed=0:01:22.04    \nframe=   67 fps=0.8 q=36.1 size=       0KiB time=00:00:01.08 bitrate=   0.3kbits/s speed=0.0131x elapsed=0:01:22.55    \nframe=   67 fps=0.8 q=36.1 size=       0KiB time=00:00:01.08 bitrate=   0.3kbits/s speed=0.013x elapsed=0:01:23.08    \nframe=   67 fps=0.8 q=36.1 size=       0KiB time=00:00:01.08 bitrate=   0.3kbits/s speed=0.013x elapsed=0:01:23.60    \nframe=   69 fps=0.8 q=30.7 size=       0KiB time=00:00:01.11 bitrate=   0.3kbits/s speed=0.0133x elapsed=0:01:24.12    \nframe=   69 fps=0.8 q=30.7 size=       0KiB time=00:00:01.11 bitrate=   0.3kbits/s speed=0.0132x elapsed=0:01:24.64    \nframe=   69 fps=0.8 q=30.7 size=       0KiB time=00:00:01.11 bitrate=   0.3kbits/s speed=0.0131x elapsed=0:01:25.18    \nframe=   70 fps=0.8 q=34.0 size=       0KiB time=00:00:01.13 bitrate=   0.3kbits/s speed=0.0132x elapsed=0:01:25.70    \nframe=   71 fps=0.8 q=35.3 size=       0KiB time=00:00:01.15 bitrate=   0.3kbits/s speed=0.0133x elapsed=0:01:26.21    \nframe=   71 fps=0.8 q=35.3 size=       0KiB time=00:00:01.15 bitrate=   0.3kbits/s speed=0.0133x elapsed=0:01:26.73    \nframe=   71 fps=0.8 q=35.3 size=       0KiB time=00:00:01.15 bitrate=   0.3kbits/s speed=0.0132x elapsed=0:01:27.25    \nframe=   72 fps=0.8 q=35.1 size=       0KiB time=00:00:01.16 bitrate=   0.3kbits/s speed=0.0133x elapsed=0:01:27.77    \nframe=   72 fps=0.8 q=35.1 size=       0KiB time=00:00:01.16 bitrate=   0.3kbits/s speed=0.0132x elapsed=0:01:28.31    \nframe=   72 fps=0.8 q=35.1 size=       0KiB time=00:00:01.16 bitrate=   0.3kbits/s speed=0.0131x elapsed=0:01:28.84    \nframe=   73 fps=0.8 q=35.2 size=       0KiB time=00:00:01.18 bitrate=   0.3kbits/s speed=0.0132x elapsed=0:01:29.35    \nframe=   74 fps=0.8 q=30.9 size=       0KiB time=00:00:01.20 bitrate=   0.3kbits/s speed=0.0134x elapsed=0:01:29.86    \nframe=   75 fps=0.8 q=31.8 size=       0KiB time=00:00:01.21 bitrate=   0.3kbits/s speed=0.0135x elapsed=0:01:30.38    \nframe=   76 fps=0.8 q=35.8 size=       0KiB time=00:00:01.23 bitrate=   0.3kbits/s speed=0.0136x elapsed=0:01:30.90    \nframe=   76 fps=0.8 q=35.8 size=       0KiB time=00:00:01.23 bitrate=   0.3kbits/s speed=0.0135x elapsed=0:01:31.41    \nframe=   77 fps=0.8 q=35.1 size=       0KiB time=00:00:01.25 bitrate=   0.3kbits/s speed=0.0136x elapsed=0:01:31.93    \nframe=   77 fps=0.8 q=35.1 size=       0KiB time=00:00:01.25 bitrate=   0.3kbits/s speed=0.0135x elapsed=0:01:32.46    \nframe=   77 fps=0.8 q=35.1 size=       0KiB time=00:00:01.25 bitrate=   0.3kbits/s speed=0.0134x elapsed=0:01:32.98    \nframe=   78 fps=0.8 q=35.9 size=       0KiB time=00:00:01.26 bitrate=   0.3kbits/s speed=0.0135x elapsed=0:01:33.55    \nframe=   79 fps=0.8 q=30.5 size=       0KiB time=00:00:01.26 bitrate=   0.3kbits/s speed=0.0135x elapsed=0:01:34.12    \nframe=   80 fps=0.8 q=33.7 size=       0KiB time=00:00:01.30 bitrate=   0.3kbits/s speed=0.0137x elapsed=0:01:34.72    \nframe=   80 fps=0.8 q=33.7 size=       0KiB time=00:00:01.30 bitrate=   0.3kbits/s speed=0.0136x elapsed=0:01:35.27    \nframe=   80 fps=0.8 q=33.7 size=       0KiB time=00:00:01.30 bitrate=   0.3kbits/s speed=0.0136x elapsed=0:01:35.78    \nframe=   81 fps=0.8 q=36.0 size=       0KiB time=00:00:01.31 bitrate=   0.3kbits/s speed=0.0137x elapsed=0:01:36.34    \nframe=   81 fps=0.8 q=36.0 size=       0KiB time=00:00:01.31 bitrate=   0.3kbits/s speed=0.0136x elapsed=0:01:36.88    \nframe=   81 fps=0.8 q=36.0 size=       0KiB time=00:00:01.31 bitrate=   0.3kbits/s speed=0.0135x elapsed=0:01:37.40    \nframe=   81 fps=0.8 q=36.0 size=       0KiB time=00:00:01.31 bitrate=   0.3kbits/s speed=0.0134x elapsed=0:01:37.96    \nframe=   81 fps=0.8 q=36.0 size=       0KiB time=00:00:01.31 bitrate=   0.3kbits/s speed=0.0134x elapsed=0:01:38.48    \nframe=   82 fps=0.8 q=35.8 size=       0KiB time=00:00:01.33 bitrate=   0.3kbits/s speed=0.0135x elapsed=0:01:39.00    \nframe=   82 fps=0.8 q=35.8 size=       0KiB time=00:00:01.33 bitrate=   0.3kbits/s speed=0.0134x elapsed=0:01:39.58    \nframe=   82 fps=0.8 q=35.8 size=       0KiB time=00:00:01.33 bitrate=   0.3kbits/s speed=0.0133x elapsed=0:01:40.12    \nframe=   82 fps=0.8 q=35.8 size=       0KiB time=00:00:01.33 bitrate=   0.3kbits/s speed=0.0132x elapsed=0:01:40.65    \nframe=   83 fps=0.8 q=36.0 size=       0KiB time=00:00:01.35 bitrate=   0.3kbits/s speed=0.0133x elapsed=0:01:41.16    \nframe=   83 fps=0.8 q=36.0 size=       0KiB time=00:00:01.35 bitrate=   0.3kbits/s speed=0.0133x elapsed=0:01:41.67    \nframe=   83 fps=0.8 q=36.0 size=       0KiB time=00:00:01.35 bitrate=   0.3kbits/s speed=0.0132x elapsed=0:01:42.20    \nframe=   84 fps=0.8 q=30.7 size=       0KiB time=00:00:01.36 bitrate=   0.3kbits/s speed=0.0133x elapsed=0:01:42.73    \nframe=   85 fps=0.8 q=33.7 size=       0KiB time=00:00:01.38 bitrate=   0.3kbits/s speed=0.0134x elapsed=0:01:43.25    \nframe=   85 fps=0.8 q=33.7 size=       0KiB time=00:00:01.38 bitrate=   0.3kbits/s speed=0.0133x elapsed=0:01:43.79    \nframe=   86 fps=0.8 q=35.9 size=       0KiB time=00:00:01.40 bitrate=   0.3kbits/s speed=0.0134x elapsed=0:01:44.33    \nframe=   86 fps=0.8 q=35.9 size=       0KiB time=00:00:01.40 bitrate=   0.3kbits/s speed=0.0133x elapsed=0:01:44.86    \nframe=   86 fps=0.8 q=35.9 size=       0KiB time=00:00:01.40 bitrate=   0.3kbits/s speed=0.0133x elapsed=0:01:45.41    \nframe=   87 fps=0.8 q=35.9 size=       0KiB time=00:00:01.41 bitrate=   0.2kbits/s speed=0.0134x elapsed=0:01:45.94    \nframe=   87 fps=0.8 q=35.9 size=       0KiB time=00:00:01.41 bitrate=   0.2kbits/s speed=0.0133x elapsed=0:01:46.49    \nframe=   88 fps=0.8 q=36.1 size=       0KiB time=00:00:01.43 bitrate=   0.2kbits/s speed=0.0134x elapsed=0:01:47.02    \nframe=   89 fps=0.8 q=30.4 size=     256KiB time=00:00:01.45 bitrate=1446.6kbits/s speed=0.0135x elapsed=0:01:47.56    \nframe=   89 fps=0.8 q=30.4 size=     256KiB time=00:00:01.45 bitrate=1446.6kbits/s speed=0.0134x elapsed=0:01:48.12    \nframe=   90 fps=0.8 q=34.7 size=     256KiB time=00:00:01.46 bitrate=1430.1kbits/s speed=0.0135x elapsed=0:01:48.66    \nframe=   90 fps=0.8 q=34.7 size=     256KiB time=00:00:01.46 bitrate=1430.1kbits/s speed=0.0134x elapsed=0:01:49.19    \nframe=   91 fps=0.8 q=35.7 size=     256KiB time=00:00:01.48 bitrate=1414.0kbits/s speed=0.0135x elapsed=0:01:49.73    \nframe=   91 fps=0.8 q=35.7 size=     256KiB time=00:00:01.48 bitrate=1414.0kbits/s speed=0.0135x elapsed=0:01:50.25    \nframe=   92 fps=0.8 q=35.1 size=     256KiB time=00:00:01.50 bitrate=1398.3kbits/s speed=0.0135x elapsed=0:01:50.79    \nframe=   92 fps=0.8 q=35.1 size=     256KiB time=00:00:01.50 bitrate=1398.3kbits/s speed=0.0135x elapsed=0:01:51.31    \nframe=   92 fps=0.8 q=35.1 size=     256KiB time=00:00:01.50 bitrate=1398.3kbits/s speed=0.0134x elapsed=0:01:51.83    \nframe=   93 fps=0.8 q=35.1 size=     256KiB time=00:00:01.51 bitrate=1383.0kbits/s speed=0.0135x elapsed=0:01:52.35    \nframe=   94 fps=0.8 q=30.3 size=     256KiB time=00:00:01.53 bitrate=1367.9kbits/s speed=0.0136x elapsed=0:01:52.87    \nframe=   95 fps=0.8 q=34.0 size=     256KiB time=00:00:01.55 bitrate=1353.2kbits/s speed=0.0137x elapsed=0:01:53.41    \nframe=   95 fps=0.8 q=34.0 size=     256KiB time=00:00:01.55 bitrate=1353.2kbits/s speed=0.0136x elapsed=0:01:53.93    \nframe=   95 fps=0.8 q=34.0 size=     256KiB time=00:00:01.55 bitrate=1353.2kbits/s speed=0.0135x elapsed=0:01:54.46    \nframe=   96 fps=0.8 q=35.0 size=     256KiB time=00:00:01.56 bitrate=1338.8kbits/s speed=0.0136x elapsed=0:01:54.99    \nframe=   96 fps=0.8 q=35.0 size=     256KiB time=00:00:01.56 bitrate=1338.8kbits/s speed=0.0136x elapsed=0:01:55.52    \nframe=   96 fps=0.8 q=35.0 size=     256KiB time=00:00:01.56 bitrate=1338.8kbits/s speed=0.0135x elapsed=0:01:56.08    \nframe=   96 fps=0.8 q=35.0 size=     256KiB time=00:00:01.56 bitrate=1338.8kbits/s speed=0.0134x elapsed=0:01:56.62    \nframe=   97 fps=0.8 q=34.8 size=     256KiB time=00:00:01.58 bitrate=1324.7kbits/s speed=0.0135x elapsed=0:01:57.13    \nframe=   98 fps=0.8 q=35.1 size=     256KiB time=00:00:01.60 bitrate=1310.9kbits/s speed=0.0136x elapsed=0:01:57.65    \nframe=   98 fps=0.8 q=35.1 size=     256KiB time=00:00:01.60 bitrate=1310.9kbits/s speed=0.0135x elapsed=0:01:58.19    \nframe=   98 fps=0.8 q=35.1 size=     256KiB time=00:00:01.60 bitrate=1310.9kbits/s speed=0.0135x elapsed=0:01:58.72    \nframe=  100 fps=0.8 q=33.9 size=     256KiB time=00:00:01.61 bitrate=1297.4kbits/s speed=0.0136x elapsed=0:01:59.30    \nframe=  100 fps=0.8 q=33.9 size=     256KiB time=00:00:01.63 bitrate=1284.2kbits/s speed=0.0136x elapsed=0:01:59.88    \nframe=  100 fps=0.8 q=33.9 size=     256KiB time=00:00:01.63 bitrate=1284.2kbits/s speed=0.0136x elapsed=0:02:00.43    \nframe=  100 fps=0.8 q=33.9 size=     256KiB time=00:00:01.63 bitrate=1284.2kbits/s speed=0.0135x elapsed=0:02:00.98    \nframe=  100 fps=0.8 q=33.9 size=     256KiB time=00:00:01.63 bitrate=1284.2kbits/s speed=0.0134x elapsed=0:02:01.53    \nframe=  100 fps=0.8 q=33.9 size=     256KiB time=00:00:01.63 bitrate=1284.2kbits/s speed=0.0134x elapsed=0:02:02.08    \nframe=  100 fps=0.8 q=33.9 size=     256KiB time=00:00:01.63 bitrate=1284.2kbits/s speed=0.0133x elapsed=0:02:02.68    \nframe=  100 fps=0.8 q=33.9 size=     256KiB time=00:00:01.63 bitrate=1284.2kbits/s speed=0.0132x elapsed=0:02:03.30    \nframe=  100 fps=0.8 q=33.9 size=     256KiB time=00:00:01.63 bitrate=1284.2kbits/s speed=0.0132x elapsed=0:02:03.84    \nframe=  100 fps=0.8 q=33.9 size=     256KiB time=00:00:01.63 bitrate=1284.2kbits/s speed=0.0131x elapsed=0:02:04.41    \nframe=  101 fps=0.8 q=34.2 size=     256KiB time=00:00:01.65 bitrate=1271.2kbits/s speed=0.0132x elapsed=0:02:04.93    \nframe=  101 fps=0.8 q=34.2 size=     256KiB time=00:00:01.65 bitrate=1271.2kbits/s speed=0.0131x elapsed=0:02:05.53    \nframe=  101 fps=0.8 q=34.2 size=     256KiB time=00:00:01.65 bitrate=1271.2kbits/s speed=0.0131x elapsed=0:02:06.10    \nframe=  101 fps=0.8 q=34.2 size=     256KiB time=00:00:01.65 bitrate=1271.2kbits/s speed=0.013x elapsed=0:02:06.64    \nframe=  101 fps=0.8 q=34.2 size=     256KiB time=00:00:01.65 bitrate=1271.2kbits/s speed=0.013x elapsed=0:02:07.18    \nframe=  101 fps=0.8 q=34.2 size=     256KiB time=00:00:01.65 bitrate=1271.2kbits/s speed=0.0129x elapsed=0:02:07.73    \nframe=  101 fps=0.8 q=34.2 size=     256KiB time=00:00:01.65 bitrate=1271.2kbits/s speed=0.0129x elapsed=0:02:08.25    \nframe=  102 fps=0.8 q=34.3 size=     256KiB time=00:00:01.66 bitrate=1258.5kbits/s speed=0.0129x elapsed=0:02:08.77    \nframe=  102 fps=0.8 q=34.3 size=     256KiB time=00:00:01.66 bitrate=1258.5kbits/s speed=0.0129x elapsed=0:02:09.28    \nframe=  102 fps=0.8 q=34.3 size=     256KiB time=00:00:01.66 bitrate=1258.5kbits/s speed=0.0128x elapsed=0:02:09.81    \nframe=  103 fps=0.8 q=34.3 size=     256KiB time=00:00:01.68 bitrate=1246.0kbits/s speed=0.0129x elapsed=0:02:10.35    \nframe=  104 fps=0.8 q=28.8 size=     256KiB time=00:00:01.70 bitrate=1233.8kbits/s speed=0.013x elapsed=0:02:10.88    \nframe=  105 fps=0.8 q=33.1 size=     256KiB time=00:00:01.71 bitrate=1221.8kbits/s speed=0.0131x elapsed=0:02:11.39    \nframe=  106 fps=0.8 q=34.0 size=     256KiB time=00:00:01.73 bitrate=1210.1kbits/s speed=0.0131x elapsed=0:02:11.91    \nframe=  106 fps=0.8 q=34.0 size=     256KiB time=00:00:01.73 bitrate=1210.1kbits/s speed=0.0131x elapsed=0:02:12.42    \nframe=  106 fps=0.8 q=34.0 size=     256KiB time=00:00:01.73 bitrate=1210.1kbits/s speed=0.013x elapsed=0:02:12.95    \nframe=  107 fps=0.8 q=34.3 size=     256KiB time=00:00:01.75 bitrate=1198.6kbits/s speed=0.0131x elapsed=0:02:13.45    \nframe=  109 fps=0.8 q=29.0 size=     256KiB time=00:00:01.78 bitrate=1176.2kbits/s speed=0.0133x elapsed=0:02:13.98    \nframe=  109 fps=0.8 q=29.0 size=     256KiB time=00:00:01.78 bitrate=1176.2kbits/s speed=0.0133x elapsed=0:02:14.49    \nframe=  110 fps=0.8 q=33.1 size=     256KiB time=00:00:01.80 bitrate=1165.3kbits/s speed=0.0133x elapsed=0:02:15.01    \nframe=  110 fps=0.8 q=33.1 size=     256KiB time=00:00:01.80 bitrate=1165.3kbits/s speed=0.0133x elapsed=0:02:15.54    \nframe=  111 fps=0.8 q=34.2 size=     256KiB time=00:00:01.81 bitrate=1154.6kbits/s speed=0.0133x elapsed=0:02:16.09    \nframe=  112 fps=0.8 q=34.1 size=     256KiB time=00:00:01.83 bitrate=1144.1kbits/s speed=0.0134x elapsed=0:02:16.60    \nframe=  112 fps=0.8 q=34.1 size=     256KiB time=00:00:01.83 bitrate=1144.1kbits/s speed=0.0134x elapsed=0:02:17.11    \nframe=  113 fps=0.8 q=34.4 size=     256KiB time=00:00:01.85 bitrate=1133.8kbits/s speed=0.0134x elapsed=0:02:17.65    \nframe=  114 fps=0.8 q=29.2 size=     256KiB time=00:00:01.86 bitrate=1123.7kbits/s speed=0.0135x elapsed=0:02:18.18    \nframe=  115 fps=0.8 q=32.9 size=     256KiB time=00:00:01.88 bitrate=1113.7kbits/s speed=0.0136x elapsed=0:02:18.70    \nframe=  116 fps=0.8 q=34.2 size=     256KiB time=00:00:01.90 bitrate=1103.9kbits/s speed=0.0136x elapsed=0:02:19.23    \nframe=  116 fps=0.8 q=34.2 size=     256KiB time=00:00:01.90 bitrate=1103.9kbits/s speed=0.0136x elapsed=0:02:19.76    \nframe=  116 fps=0.8 q=34.2 size=     256KiB time=00:00:01.90 bitrate=1103.9kbits/s speed=0.0135x elapsed=0:02:20.32    \nframe=  116 fps=0.8 q=34.2 size=     256KiB time=00:00:01.90 bitrate=1103.9kbits/s speed=0.0135x elapsed=0:02:20.83    \nframe=  117 fps=0.8 q=34.2 size=     256KiB time=00:00:01.91 bitrate=1094.3kbits/s speed=0.0136x elapsed=0:02:21.34    \nframe=  117 fps=0.8 q=34.2 size=     256KiB time=00:00:01.91 bitrate=1094.3kbits/s speed=0.0135x elapsed=0:02:21.87    \nframe=  117 fps=0.8 q=34.2 size=     256KiB time=00:00:01.91 bitrate=1094.3kbits/s speed=0.0135x elapsed=0:02:22.40    \nframe=  118 fps=0.8 q=34.4 size=     256KiB time=00:00:01.93 bitrate=1084.9kbits/s speed=0.0135x elapsed=0:02:22.92    \nframe=  121 fps=0.8 q=34.2 size=     256KiB time=00:00:01.98 bitrate=1057.6kbits/s speed=0.0138x elapsed=0:02:23.45    \nframe=  121 fps=0.8 q=34.2 size=     256KiB time=00:00:01.98 bitrate=1057.6kbits/s speed=0.0138x elapsed=0:02:23.96    \nframe=  122 fps=0.8 q=34.2 size=     256KiB time=00:00:02.00 bitrate=1048.8kbits/s speed=0.0138x elapsed=0:02:24.49    \nframe=  123 fps=0.8 q=34.3 size=     256KiB time=00:00:02.01 bitrate=1040.1kbits/s speed=0.0139x elapsed=0:02:25.04    \nframe=  124 fps=0.9 q=28.6 size=     256KiB time=00:00:02.03 bitrate=1031.6kbits/s speed=0.014x elapsed=0:02:25.55    \nframe=  125 fps=0.9 q=33.2 size=     256KiB time=00:00:02.05 bitrate=1023.2kbits/s speed=0.014x elapsed=0:02:26.07    \nframe=  127 fps=0.9 q=34.2 size=     256KiB time=00:00:02.08 bitrate=1006.8kbits/s speed=0.0142x elapsed=0:02:26.57    \nframe=  127 fps=0.9 q=34.2 size=     256KiB time=00:00:02.08 bitrate=1006.8kbits/s speed=0.0142x elapsed=0:02:27.10    \nframe=  127 fps=0.9 q=34.2 size=     256KiB time=00:00:02.08 bitrate=1006.8kbits/s speed=0.0141x elapsed=0:02:27.62    \nframe=  128 fps=0.9 q=34.4 size=     256KiB time=00:00:02.10 bitrate= 998.8kbits/s speed=0.0142x elapsed=0:02:28.14    \nframe=  128 fps=0.9 q=34.4 size=     256KiB time=00:00:02.10 bitrate= 998.8kbits/s speed=0.0141x elapsed=0:02:28.67    \nframe=  129 fps=0.9 q=28.7 size=     256KiB time=00:00:02.11 bitrate= 990.9kbits/s speed=0.0142x elapsed=0:02:29.21    \nframe=  131 fps=0.9 q=34.3 size=     256KiB time=00:00:02.15 bitrate= 975.6kbits/s speed=0.0144x elapsed=0:02:29.75    \nframe=  131 fps=0.9 q=34.3 size=     256KiB time=00:00:02.15 bitrate= 975.6kbits/s speed=0.0143x elapsed=0:02:30.29    \nframe=  132 fps=0.9 q=33.4 size=     256KiB time=00:00:02.16 bitrate= 968.1kbits/s speed=0.0144x elapsed=0:02:30.81    \nframe=  133 fps=0.9 q=33.2 size=     256KiB time=00:00:02.18 bitrate= 960.7kbits/s speed=0.0144x elapsed=0:02:31.33    \nframe=  133 fps=0.9 q=33.2 size=     256KiB time=00:00:02.18 bitrate= 960.7kbits/s speed=0.0144x elapsed=0:02:31.87    \nframe=  134 fps=0.9 q=27.6 size=     256KiB time=00:00:02.20 bitrate= 953.4kbits/s speed=0.0144x elapsed=0:02:32.41    \nframe=  136 fps=0.9 q=33.2 size=     256KiB time=00:00:02.23 bitrate= 939.2kbits/s speed=0.0146x elapsed=0:02:32.93    \nframe=  137 fps=0.9 q=33.3 size=     256KiB time=00:00:02.25 bitrate= 932.2kbits/s speed=0.0147x elapsed=0:02:33.44    \nframe=  138 fps=0.9 q=33.3 size=     256KiB time=00:00:02.26 bitrate= 925.4kbits/s speed=0.0147x elapsed=0:02:33.95    \nframe=  138 fps=0.9 q=33.3 size=     256KiB time=00:00:02.26 bitrate= 925.4kbits/s speed=0.0147x elapsed=0:02:34.49    \nframe=  141 fps=0.9 q=33.6 size=     256KiB time=00:00:02.31 bitrate= 905.4kbits/s speed=0.0149x elapsed=0:02:35.00    \nframe=  142 fps=0.9 q=34.3 size=     256KiB time=00:00:02.33 bitrate= 898.9kbits/s speed=0.015x elapsed=0:02:35.52    \nframe=  142 fps=0.9 q=34.3 size=     256KiB time=00:00:02.33 bitrate= 898.9kbits/s speed=0.015x elapsed=0:02:36.05    \nframe=  142 fps=0.9 q=34.3 size=     256KiB time=00:00:02.33 bitrate= 898.9kbits/s speed=0.0149x elapsed=0:02:36.59    \nframe=  143 fps=0.9 q=28.5 size=     256KiB time=00:00:02.35 bitrate= 892.6kbits/s speed=0.015x elapsed=0:02:37.10    \nframe=  144 fps=0.9 q=31.7 size=     256KiB time=00:00:02.36 bitrate= 886.3kbits/s speed=0.015x elapsed=0:02:37.61    \nframe=  145 fps=0.9 q=34.5 size=     256KiB time=00:00:02.38 bitrate= 880.1kbits/s speed=0.0151x elapsed=0:02:38.14    \nframe=  145 fps=0.9 q=34.5 size=     256KiB time=00:00:02.38 bitrate= 880.1kbits/s speed=0.015x elapsed=0:02:38.68    \nframe=  147 fps=0.9 q=34.4 size=     256KiB time=00:00:02.41 bitrate= 867.9kbits/s speed=0.0152x elapsed=0:02:39.20    \nframe=  147 fps=0.9 q=34.4 size=     256KiB time=00:00:02.41 bitrate= 867.9kbits/s speed=0.0151x elapsed=0:02:39.72    \nframe=  149 fps=0.9 q=31.7 size=     256KiB time=00:00:02.45 bitrate= 856.1kbits/s speed=0.0153x elapsed=0:02:40.23    \nframe=  149 fps=0.9 q=31.7 size=     256KiB time=00:00:02.45 bitrate= 856.1kbits/s speed=0.0152x elapsed=0:02:40.76    \nframe=  151 fps=0.9 q=34.3 size=     256KiB time=00:00:02.48 bitrate= 844.6kbits/s speed=0.0154x elapsed=0:02:41.29    \nframe=  152 fps=0.9 q=34.4 size=     256KiB time=00:00:02.50 bitrate= 839.0kbits/s speed=0.0154x elapsed=0:02:41.82    \nframe=  153 fps=0.9 q=29.8 size=     256KiB time=00:00:02.51 bitrate= 833.4kbits/s speed=0.0155x elapsed=0:02:42.35    \nframe=  154 fps=0.9 q=32.6 size=     256KiB time=00:00:02.53 bitrate= 828.0kbits/s speed=0.0156x elapsed=0:02:42.86    \nframe=  155 fps=0.9 q=35.1 size=     256KiB time=00:00:02.55 bitrate= 822.6kbits/s speed=0.0156x elapsed=0:02:43.38    \nframe=  156 fps=1.0 q=35.2 size=     256KiB time=00:00:02.56 bitrate= 817.2kbits/s speed=0.0157x elapsed=0:02:43.89    \nframe=  156 fps=0.9 q=35.2 size=     256KiB time=00:00:02.56 bitrate= 817.2kbits/s speed=0.0156x elapsed=0:02:44.43    \nframe=  157 fps=1.0 q=35.6 size=     256KiB time=00:00:02.58 bitrate= 811.9kbits/s speed=0.0157x elapsed=0:02:44.95    \nframe=  158 fps=1.0 q=30.3 size=     256KiB time=00:00:02.60 bitrate= 806.7kbits/s speed=0.0157x elapsed=0:02:45.48    \nframe=  158 fps=1.0 q=30.3 size=     256KiB time=00:00:02.60 bitrate= 806.7kbits/s speed=0.0157x elapsed=0:02:46.01    \nframe=  158 fps=0.9 q=30.3 size=     256KiB time=00:00:02.60 bitrate= 806.7kbits/s speed=0.0156x elapsed=0:02:46.53    \nframe=  159 fps=1.0 q=33.9 size=     256KiB time=00:00:02.61 bitrate= 801.6kbits/s speed=0.0157x elapsed=0:02:47.06    \nframe=  159 fps=0.9 q=33.9 size=     256KiB time=00:00:02.61 bitrate= 801.6kbits/s speed=0.0156x elapsed=0:02:47.58    \nframe=  160 fps=1.0 q=35.9 size=     256KiB time=00:00:02.63 bitrate= 796.5kbits/s speed=0.0157x elapsed=0:02:48.09    \nframe=  161 fps=1.0 q=35.9 size=     256KiB time=00:00:02.65 bitrate= 791.5kbits/s speed=0.0157x elapsed=0:02:48.63    \nframe=  161 fps=1.0 q=35.9 size=     256KiB time=00:00:02.65 bitrate= 791.5kbits/s speed=0.0157x elapsed=0:02:49.14    \nframe=  161 fps=0.9 q=35.9 size=     256KiB time=00:00:02.65 bitrate= 791.5kbits/s speed=0.0156x elapsed=0:02:49.65    \nframe=  162 fps=1.0 q=36.0 size=     256KiB time=00:00:02.66 bitrate= 786.6kbits/s speed=0.0157x elapsed=0:02:50.18    \nframe=  163 fps=1.0 q=30.3 size=     256KiB time=00:00:02.68 bitrate= 781.7kbits/s speed=0.0157x elapsed=0:02:50.70    \nframe=  164 fps=1.0 q=33.2 size=     256KiB time=00:00:02.70 bitrate= 776.9kbits/s speed=0.0158x elapsed=0:02:51.22    \nframe=  165 fps=1.0 q=36.0 size=     256KiB time=00:00:02.71 bitrate= 772.1kbits/s speed=0.0158x elapsed=0:02:51.74    \nframe=  165 fps=1.0 q=36.0 size=     256KiB time=00:00:02.71 bitrate= 772.1kbits/s speed=0.0158x elapsed=0:02:52.26    \nframe=  165 fps=1.0 q=36.0 size=     256KiB time=00:00:02.71 bitrate= 772.1kbits/s speed=0.0157x elapsed=0:02:52.79    \nframe=  165 fps=1.0 q=36.0 size=     256KiB time=00:00:02.71 bitrate= 772.1kbits/s speed=0.0157x elapsed=0:02:53.31    \nframe=  166 fps=1.0 q=35.9 size=     256KiB time=00:00:02.73 bitrate= 767.4kbits/s speed=0.0157x elapsed=0:02:53.83    \nframe=  166 fps=1.0 q=35.9 size=     256KiB time=00:00:02.73 bitrate= 767.4kbits/s speed=0.0157x elapsed=0:02:54.34    \nframe=  167 fps=1.0 q=30.4 size=     256KiB time=00:00:02.75 bitrate= 762.7kbits/s speed=0.0157x elapsed=0:02:54.86    \nframe=  168 fps=1.0 q=33.3 size=     256KiB time=00:00:02.76 bitrate= 758.1kbits/s speed=0.0158x elapsed=0:02:55.40    \nframe=  168 fps=1.0 q=33.3 size=     256KiB time=00:00:02.76 bitrate= 758.1kbits/s speed=0.0157x elapsed=0:02:55.93    \nframe=  169 fps=1.0 q=36.0 size=     512KiB time=00:00:02.78 bitrate=1507.1kbits/s speed=0.0158x elapsed=0:02:56.46    \nframe=  169 fps=1.0 q=36.0 size=     512KiB time=00:00:02.78 bitrate=1507.1kbits/s speed=0.0157x elapsed=0:02:57.01    \nframe=  169 fps=1.0 q=36.0 size=     512KiB time=00:00:02.78 bitrate=1507.1kbits/s speed=0.0157x elapsed=0:02:57.53    \nframe=  169 fps=0.9 q=36.0 size=     512KiB time=00:00:02.78 bitrate=1507.1kbits/s speed=0.0156x elapsed=0:02:58.07    \nframe=  169 fps=0.9 q=36.0 size=     512KiB time=00:00:02.78 bitrate=1507.1kbits/s speed=0.0156x elapsed=0:02:58.61    \nframe=  169 fps=0.9 q=36.0 size=     512KiB time=00:00:02.78 bitrate=1507.1kbits/s speed=0.0155x elapsed=0:02:59.12    \nframe=  170 fps=0.9 q=36.0 size=     512KiB time=00:00:02.80 bitrate=1498.1kbits/s speed=0.0156x elapsed=0:02:59.64    \nframe=  170 fps=0.9 q=36.0 size=     512KiB time=00:00:02.80 bitrate=1498.1kbits/s speed=0.0155x elapsed=0:03:00.21    \nframe=  171 fps=0.9 q=30.6 size=     512KiB time=00:00:02.81 bitrate=1489.2kbits/s speed=0.0156x elapsed=0:03:00.73    \nframe=  171 fps=0.9 q=30.6 size=     512KiB time=00:00:02.81 bitrate=1489.2kbits/s speed=0.0155x elapsed=0:03:01.27    \nframe=  172 fps=0.9 q=33.5 size=     512KiB time=00:00:02.83 bitrate=1480.5kbits/s speed=0.0156x elapsed=0:03:01.84    \nframe=  172 fps=0.9 q=33.5 size=     512KiB time=00:00:02.83 bitrate=1480.5kbits/s speed=0.0155x elapsed=0:03:02.37    \nframe=  172 fps=0.9 q=33.5 size=     512KiB time=00:00:02.83 bitrate=1480.5kbits/s speed=0.0155x elapsed=0:03:02.91    \nframe=  172 fps=0.9 q=33.5 size=     512KiB time=00:00:02.83 bitrate=1480.5kbits/s speed=0.0154x elapsed=0:03:03.43    \nframe=  173 fps=0.9 q=35.8 size=     512KiB time=00:00:02.85 bitrate=1471.8kbits/s speed=0.0155x elapsed=0:03:03.95    \nframe=  174 fps=0.9 q=36.0 size=     512KiB time=00:00:02.86 bitrate=1463.3kbits/s speed=0.0155x elapsed=0:03:04.51    \nframe=  174 fps=0.9 q=36.0 size=     512KiB time=00:00:02.86 bitrate=1463.3kbits/s speed=0.0155x elapsed=0:03:05.05    \nframe=  174 fps=0.9 q=36.0 size=     512KiB time=00:00:02.86 bitrate=1463.3kbits/s speed=0.0154x elapsed=0:03:05.57    \nframe=  174 fps=0.9 q=36.0 size=     512KiB time=00:00:02.86 bitrate=1463.3kbits/s speed=0.0154x elapsed=0:03:06.08    \nframe=  174 fps=0.9 q=36.0 size=     512KiB time=00:00:02.86 bitrate=1463.3kbits/s speed=0.0154x elapsed=0:03:06.59    \nframe=  174 fps=0.9 q=36.0 size=     512KiB time=00:00:02.86 bitrate=1463.3kbits/s speed=0.0153x elapsed=0:03:07.11    \nframe=  175 fps=0.9 q=30.4 size=     512KiB time=00:00:02.88 bitrate=1454.8kbits/s speed=0.0154x elapsed=0:03:07.64    \nframe=  176 fps=0.9 q=33.4 size=     512KiB time=00:00:02.90 bitrate=1446.4kbits/s speed=0.0154x elapsed=0:03:08.19    \nframe=  176 fps=0.9 q=33.4 size=     512KiB time=00:00:02.90 bitrate=1446.4kbits/s speed=0.0154x elapsed=0:03:08.78    \nframe=  176 fps=0.9 q=33.4 size=     512KiB time=00:00:02.90 bitrate=1446.4kbits/s speed=0.0153x elapsed=0:03:09.33    \nframe=  177 fps=0.9 q=35.9 size=     512KiB time=00:00:02.91 bitrate=1438.2kbits/s speed=0.0154x elapsed=0:03:09.87    \nframe=  178 fps=0.9 q=35.9 size=     512KiB time=00:00:02.93 bitrate=1430.0kbits/s speed=0.0154x elapsed=0:03:10.39    \nframe=  178 fps=0.9 q=35.9 size=     512KiB time=00:00:02.93 bitrate=1430.0kbits/s speed=0.0154x elapsed=0:03:10.92    \nframe=  178 fps=0.9 q=35.9 size=     512KiB time=00:00:02.93 bitrate=1430.0kbits/s speed=0.0153x elapsed=0:03:11.45    \nframe=  178 fps=0.9 q=35.9 size=     512KiB time=00:00:02.93 bitrate=1430.0kbits/s speed=0.0153x elapsed=0:03:12.00    \nframe=  178 fps=0.9 q=35.9 size=     512KiB time=00:00:02.93 bitrate=1430.0kbits/s speed=0.0152x elapsed=0:03:12.56    \nframe=  178 fps=0.9 q=35.9 size=     512KiB time=00:00:02.93 bitrate=1430.0kbits/s speed=0.0152x elapsed=0:03:13.10    \nframe=  178 fps=0.9 q=35.9 size=     512KiB time=00:00:02.93 bitrate=1430.0kbits/s speed=0.0151x elapsed=0:03:13.65    \nframe=  178 fps=0.9 q=35.9 size=     512KiB time=00:00:02.93 bitrate=1430.0kbits/s speed=0.0151x elapsed=0:03:14.28    \nframe=  178 fps=0.9 q=35.9 size=     512KiB time=00:00:02.93 bitrate=1430.0kbits/s speed=0.0151x elapsed=0:03:14.88    \nframe=  179 fps=0.9 q=30.7 size=     512KiB time=00:00:02.95 bitrate=1421.9kbits/s speed=0.0151x elapsed=0:03:15.42    \nframe=  179 fps=0.9 q=30.7 size=     512KiB time=00:00:02.95 bitrate=1421.9kbits/s speed=0.0151x elapsed=0:03:15.98    \nframe=  180 fps=0.9 q=33.6 size=     512KiB time=00:00:02.96 bitrate=1413.9kbits/s speed=0.0151x elapsed=0:03:16.53    \nframe=  180 fps=0.9 q=33.6 size=     512KiB time=00:00:02.96 bitrate=1413.9kbits/s speed=0.0151x elapsed=0:03:17.06    \nframe=  180 fps=0.9 q=33.6 size=     512KiB time=00:00:02.96 bitrate=1413.9kbits/s speed=0.015x elapsed=0:03:17.58    \nframe=  181 fps=0.9 q=36.1 size=     512KiB time=00:00:02.98 bitrate=1406.0kbits/s speed=0.0151x elapsed=0:03:18.12    \nframe=  182 fps=0.9 q=36.0 size=     512KiB time=00:00:03.00 bitrate=1398.2kbits/s speed=0.0151x elapsed=0:03:18.64    \nframe=  182 fps=0.9 q=36.0 size=     512KiB time=00:00:03.00 bitrate=1398.2kbits/s speed=0.0151x elapsed=0:03:19.15    \nframe=  183 fps=0.9 q=30.5 size=     512KiB time=00:00:03.01 bitrate=1390.5kbits/s speed=0.0151x elapsed=0:03:19.69    \nframe=  183 fps=0.9 q=30.5 size=     512KiB time=00:00:03.01 bitrate=1390.5kbits/s speed=0.0151x elapsed=0:03:20.24    \nframe=  183 fps=0.9 q=30.5 size=     512KiB time=00:00:03.01 bitrate=1390.5kbits/s speed=0.015x elapsed=0:03:20.78    \nframe=  184 fps=0.9 q=33.8 size=     512KiB time=00:00:03.03 bitrate=1382.9kbits/s speed=0.0151x elapsed=0:03:21.33    \nframe=  184 fps=0.9 q=33.8 size=     512KiB time=00:00:03.03 bitrate=1382.9kbits/s speed=0.015x elapsed=0:03:21.84    \nframe=  186 fps=0.9 q=36.7 size=     512KiB time=00:00:03.06 bitrate=1367.8kbits/s speed=0.0152x elapsed=0:03:22.36    \nframe=  186 fps=0.9 q=36.7 size=     512KiB time=00:00:03.06 bitrate=1367.8kbits/s speed=0.0151x elapsed=0:03:22.88    \nframe=  186 fps=0.9 q=36.7 size=     512KiB time=00:00:03.06 bitrate=1367.8kbits/s speed=0.0151x elapsed=0:03:23.42    \nframe=  187 fps=0.9 q=30.8 size=     512KiB time=00:00:03.08 bitrate=1360.4kbits/s speed=0.0151x elapsed=0:03:23.97    \nframe=  187 fps=0.9 q=30.8 size=     512KiB time=00:00:03.08 bitrate=1360.4kbits/s speed=0.0151x elapsed=0:03:24.50    \nframe=  188 fps=0.9 q=34.4 size=     512KiB time=00:00:03.10 bitrate=1353.1kbits/s speed=0.0151x elapsed=0:03:25.01    \nframe=  189 fps=0.9 q=36.9 size=     512KiB time=00:00:03.11 bitrate=1345.9kbits/s speed=0.0152x elapsed=0:03:25.53    \nframe=  189 fps=0.9 q=36.9 size=     512KiB time=00:00:03.11 bitrate=1345.9kbits/s speed=0.0151x elapsed=0:03:26.06    \nframe=  190 fps=0.9 q=36.9 size=     512KiB time=00:00:03.13 bitrate=1338.7kbits/s speed=0.0152x elapsed=0:03:26.59    \nframe=  190 fps=0.9 q=36.9 size=     512KiB time=00:00:03.13 bitrate=1338.7kbits/s speed=0.0151x elapsed=0:03:27.12    \nframe=  191 fps=0.9 q=31.1 size=     512KiB time=00:00:03.15 bitrate=1331.6kbits/s speed=0.0152x elapsed=0:03:27.66    \nframe=  192 fps=0.9 q=34.4 size=     512KiB time=00:00:03.16 bitrate=1324.6kbits/s speed=0.0152x elapsed=0:03:28.20    \nframe=  193 fps=0.9 q=37.2 size=     512KiB time=00:00:03.18 bitrate=1317.7kbits/s speed=0.0152x elapsed=0:03:28.74    \nframe=  193 fps=0.9 q=37.2 size=     512KiB time=00:00:03.18 bitrate=1317.7kbits/s speed=0.0152x elapsed=0:03:29.26    \nframe=  193 fps=0.9 q=37.2 size=     512KiB time=00:00:03.18 bitrate=1317.7kbits/s speed=0.0152x elapsed=0:03:29.81    \nframe=  193 fps=0.9 q=37.2 size=     512KiB time=00:00:03.18 bitrate=1317.7kbits/s speed=0.0151x elapsed=0:03:30.37    \nframe=  194 fps=0.9 q=37.1 size=     512KiB time=00:00:03.20 bitrate=1310.8kbits/s speed=0.0152x elapsed=0:03:30.91    \nframe=  194 fps=0.9 q=37.1 size=     512KiB time=00:00:03.20 bitrate=1310.8kbits/s speed=0.0151x elapsed=0:03:31.46    \nframe=  195 fps=0.9 q=31.6 size=     512KiB time=00:00:03.21 bitrate=1304.0kbits/s speed=0.0152x elapsed=0:03:31.99    \nframe=  195 fps=0.9 q=31.6 size=     512KiB time=00:00:03.21 bitrate=1304.0kbits/s speed=0.0151x elapsed=0:03:32.52    \nframe=  196 fps=0.9 q=34.9 size=     512KiB time=00:00:03.23 bitrate=1297.3kbits/s speed=0.0152x elapsed=0:03:33.05    \nframe=  196 fps=0.9 q=34.9 size=     512KiB time=00:00:03.23 bitrate=1297.3kbits/s speed=0.0151x elapsed=0:03:33.57    \nframe=  196 fps=0.9 q=34.9 size=     512KiB time=00:00:03.23 bitrate=1297.3kbits/s speed=0.0151x elapsed=0:03:34.11    \nframe=  196 fps=0.9 q=34.9 size=     512KiB time=00:00:03.23 bitrate=1297.3kbits/s speed=0.0151x elapsed=0:03:34.64    \nframe=  196 fps=0.9 q=34.9 size=     512KiB time=00:00:03.23 bitrate=1297.3kbits/s speed=0.015x elapsed=0:03:35.20    \nframe=  196 fps=0.9 q=34.9 size=     512KiB time=00:00:03.23 bitrate=1297.3kbits/s speed=0.015x elapsed=0:03:35.72    \nframe=  199 fps=0.9 q=31.8 size=     512KiB time=00:00:03.28 bitrate=1277.6kbits/s speed=0.0152x elapsed=0:03:36.24    \nframe=  199 fps=0.9 q=31.8 size=     512KiB time=00:00:03.28 bitrate=1277.6kbits/s speed=0.0151x elapsed=0:03:36.79    \nframe=  199 fps=0.9 q=31.8 size=     512KiB time=00:00:03.28 bitrate=1277.6kbits/s speed=0.0151x elapsed=0:03:37.34    \nframe=  199 fps=0.9 q=31.8 size=     512KiB time=00:00:03.28 bitrate=1277.6kbits/s speed=0.0151x elapsed=0:03:37.93    \nframe=  199 fps=0.9 q=31.8 size=     512KiB time=00:00:03.28 bitrate=1277.6kbits/s speed=0.015x elapsed=0:03:38.48    \nframe=  199 fps=0.9 q=31.8 size=     512KiB time=00:00:03.28 bitrate=1277.6kbits/s speed=0.015x elapsed=0:03:39.06    \nframe=  199 fps=0.9 q=31.8 size=     512KiB time=00:00:03.28 bitrate=1277.6kbits/s speed=0.0149x elapsed=0:03:39.66    \nframe=  200 fps=0.9 q=35.0 size=     512KiB time=00:00:03.30 bitrate=1271.1kbits/s speed=0.015x elapsed=0:03:40.19    \nframe=  201 fps=0.9 q=37.0 size=     512KiB time=00:00:03.31 bitrate=1264.7kbits/s speed=0.015x elapsed=0:03:40.71    \nframe=  201 fps=0.9 q=37.0 size=     512KiB time=00:00:03.31 bitrate=1264.7kbits/s speed=0.015x elapsed=0:03:41.26    \nframe=  201 fps=0.9 q=37.0 size=     512KiB time=00:00:03.31 bitrate=1264.7kbits/s speed=0.015x elapsed=0:03:41.79    \nframe=  201 fps=0.9 q=37.0 size=     512KiB time=00:00:03.31 bitrate=1264.7kbits/s speed=0.0149x elapsed=0:03:42.34    \nframe=  201 fps=0.9 q=37.0 size=     512KiB time=00:00:03.31 bitrate=1264.7kbits/s speed=0.0149x elapsed=0:03:42.87    \nframe=  201 fps=0.9 q=37.0 size=     512KiB time=00:00:03.31 bitrate=1264.7kbits/s speed=0.0148x elapsed=0:03:43.40    \nframe=  202 fps=0.9 q=37.4 size=     512KiB time=00:00:03.33 bitrate=1258.4kbits/s speed=0.0149x elapsed=0:03:43.93    \nframe=  203 fps=0.9 q=32.1 size=     512KiB time=00:00:03.35 bitrate=1252.1kbits/s speed=0.0149x elapsed=0:03:44.46    \nframe=  203 fps=0.9 q=32.1 size=     512KiB time=00:00:03.35 bitrate=1252.1kbits/s speed=0.0149x elapsed=0:03:45.03    \nframe=  203 fps=0.9 q=32.1 size=     512KiB time=00:00:03.35 bitrate=1252.1kbits/s speed=0.0148x elapsed=0:03:45.60    \nframe=  203 fps=0.9 q=32.1 size=     512KiB time=00:00:03.35 bitrate=1252.1kbits/s speed=0.0148x elapsed=0:03:46.15    \nframe=  204 fps=0.9 q=34.8 size=     512KiB time=00:00:03.36 bitrate=1245.9kbits/s speed=0.0148x elapsed=0:03:46.72    \nframe=  204 fps=0.9 q=34.8 size=     512KiB time=00:00:03.36 bitrate=1245.9kbits/s speed=0.0148x elapsed=0:03:47.26    \nframe=  204 fps=0.9 q=34.8 size=     512KiB time=00:00:03.36 bitrate=1245.9kbits/s speed=0.0148x elapsed=0:03:47.82    \nframe=  205 fps=0.9 q=37.2 size=     512KiB time=00:00:03.38 bitrate=1239.8kbits/s speed=0.0148x elapsed=0:03:48.35    \nframe=  205 fps=0.9 q=37.2 size=     512KiB time=00:00:03.38 bitrate=1239.8kbits/s speed=0.0148x elapsed=0:03:48.87    \nframe=  205 fps=0.9 q=37.2 size=     512KiB time=00:00:03.38 bitrate=1239.8kbits/s speed=0.0147x elapsed=0:03:49.40    \nframe=  205 fps=0.9 q=37.2 size=     512KiB time=00:00:03.38 bitrate=1239.8kbits/s speed=0.0147x elapsed=0:03:49.99    \nframe=  205 fps=0.9 q=37.2 size=     512KiB time=00:00:03.38 bitrate=1239.8kbits/s speed=0.0147x elapsed=0:03:50.55    \nframe=  205 fps=0.9 q=37.2 size=     512KiB time=00:00:03.38 bitrate=1239.8kbits/s speed=0.0146x elapsed=0:03:51.13    \nframe=  207 fps=0.9 q=31.9 size=     512KiB time=00:00:03.41 bitrate=1227.7kbits/s speed=0.0147x elapsed=0:03:51.70    \nframe=  208 fps=0.9 q=34.7 size=     512KiB time=00:00:03.43 bitrate=1221.7kbits/s speed=0.0148x elapsed=0:03:52.24    \nframe=  208 fps=0.9 q=34.7 size=     512KiB time=00:00:03.43 bitrate=1221.7kbits/s speed=0.0147x elapsed=0:03:52.81    \nframe=  208 fps=0.9 q=34.7 size=     512KiB time=00:00:03.43 bitrate=1221.7kbits/s speed=0.0147x elapsed=0:03:53.37    \nframe=  209 fps=0.9 q=37.1 size=     512KiB time=00:00:03.45 bitrate=1215.8kbits/s speed=0.0147x elapsed=0:03:53.91    \nframe=  209 fps=0.9 q=37.1 size=     512KiB time=00:00:03.45 bitrate=1215.8kbits/s speed=0.0147x elapsed=0:03:54.43    \nframe=  209 fps=0.9 q=37.1 size=     512KiB time=00:00:03.45 bitrate=1215.8kbits/s speed=0.0147x elapsed=0:03:55.00    \nframe=  210 fps=0.9 q=37.0 size=     512KiB time=00:00:03.46 bitrate=1210.0kbits/s speed=0.0147x elapsed=0:03:55.53    \nframe=  210 fps=0.9 q=37.0 size=     512KiB time=00:00:03.46 bitrate=1210.0kbits/s speed=0.0147x elapsed=0:03:56.12    \nframe=  210 fps=0.9 q=37.0 size=     512KiB time=00:00:03.46 bitrate=1210.0kbits/s speed=0.0146x elapsed=0:03:56.72    \nframe=  210 fps=0.9 q=37.0 size=     512KiB time=00:00:03.46 bitrate=1210.0kbits/s speed=0.0146x elapsed=0:03:57.26    \nframe=  212 fps=0.9 q=34.6 size=     512KiB time=00:00:03.48 bitrate=1204.2kbits/s speed=0.0146x elapsed=0:03:57.79    \nframe=  212 fps=0.9 q=34.6 size=     512KiB time=00:00:03.50 bitrate=1198.5kbits/s speed=0.0147x elapsed=0:03:58.33    \nframe=  212 fps=0.9 q=34.6 size=     512KiB time=00:00:03.50 bitrate=1198.5kbits/s speed=0.0147x elapsed=0:03:58.86    \nframe=  212 fps=0.9 q=34.6 size=     512KiB time=00:00:03.50 bitrate=1198.5kbits/s speed=0.0146x elapsed=0:03:59.38    \nframe=  213 fps=0.9 q=37.1 size=     512KiB time=00:00:03.51 bitrate=1192.8kbits/s speed=0.0147x elapsed=0:03:59.92    \nframe=  214 fps=0.9 q=36.8 size=     512KiB time=00:00:03.53 bitrate=1187.2kbits/s speed=0.0147x elapsed=0:04:00.47    \nframe=  214 fps=0.9 q=36.8 size=     512KiB time=00:00:03.53 bitrate=1187.2kbits/s speed=0.0147x elapsed=0:04:01.00    \nframe=  215 fps=0.9 q=31.4 size=     512KiB time=00:00:03.55 bitrate=1181.6kbits/s speed=0.0147x elapsed=0:04:01.54    \nframe=  215 fps=0.9 q=31.4 size=     512KiB time=00:00:03.55 bitrate=1181.6kbits/s speed=0.0147x elapsed=0:04:02.09    \nframe=  215 fps=0.9 q=31.4 size=     512KiB time=00:00:03.55 bitrate=1181.6kbits/s speed=0.0146x elapsed=0:04:02.64    \nframe=  215 fps=0.9 q=31.4 size=     512KiB time=00:00:03.55 bitrate=1181.6kbits/s speed=0.0146x elapsed=0:04:03.16    \nframe=  215 fps=0.9 q=31.4 size=     512KiB time=00:00:03.55 bitrate=1181.6kbits/s speed=0.0146x elapsed=0:04:03.76    \nframe=  215 fps=0.9 q=31.4 size=     512KiB time=00:00:03.55 bitrate=1181.6kbits/s speed=0.0145x elapsed=0:04:04.37    \nframe=  215 fps=0.9 q=31.4 size=     512KiB time=00:00:03.55 bitrate=1181.6kbits/s speed=0.0145x elapsed=0:04:04.92    \nframe=  215 fps=0.9 q=31.4 size=     512KiB time=00:00:03.55 bitrate=1181.6kbits/s speed=0.0145x elapsed=0:04:05.50    \nframe=  216 fps=0.9 q=34.6 size=     512KiB time=00:00:03.56 bitrate=1176.1kbits/s speed=0.0145x elapsed=0:04:06.09    \nframe=  216 fps=0.9 q=34.6 size=     512KiB time=00:00:03.56 bitrate=1176.1kbits/s speed=0.0145x elapsed=0:04:06.65    \nframe=  216 fps=0.9 q=34.6 size=     512KiB time=00:00:03.56 bitrate=1176.1kbits/s speed=0.0144x elapsed=0:04:07.22    \nframe=  216 fps=0.9 q=34.6 size=     512KiB time=00:00:03.56 bitrate=1176.1kbits/s speed=0.0144x elapsed=0:04:07.78    \nframe=  216 fps=0.9 q=34.6 size=     512KiB time=00:00:03.56 bitrate=1176.1kbits/s speed=0.0144x elapsed=0:04:08.34    \nframe=  216 fps=0.9 q=34.6 size=     512KiB time=00:00:03.56 bitrate=1176.1kbits/s speed=0.0143x elapsed=0:04:08.97    \nframe=  217 fps=0.9 q=36.8 size=     512KiB time=00:00:03.58 bitrate=1170.6kbits/s speed=0.0144x elapsed=0:04:09.56    \nframe=  217 fps=0.9 q=36.8 size=     512KiB time=00:00:03.58 bitrate=1170.6kbits/s speed=0.0143x elapsed=0:04:10.19    \nframe=  217 fps=0.9 q=36.8 size=     512KiB time=00:00:03.58 bitrate=1170.6kbits/s speed=0.0143x elapsed=0:04:10.75    \nframe=  217 fps=0.9 q=36.8 size=     512KiB time=00:00:03.58 bitrate=1170.6kbits/s speed=0.0143x elapsed=0:04:11.32    \nframe=  218 fps=0.9 q=37.0 size=     512KiB time=00:00:03.60 bitrate=1165.2kbits/s speed=0.0143x elapsed=0:04:11.86    \nframe=  218 fps=0.9 q=37.0 size=     512KiB time=00:00:03.60 bitrate=1165.2kbits/s speed=0.0143x elapsed=0:04:12.45    \nframe=  218 fps=0.9 q=37.0 size=     512KiB time=00:00:03.60 bitrate=1165.2kbits/s speed=0.0142x elapsed=0:04:13.01    \nframe=  219 fps=0.9 q=31.3 size=     512KiB time=00:00:03.61 bitrate=1159.8kbits/s speed=0.0143x elapsed=0:04:13.53    \nframe=  219 fps=0.9 q=31.3 size=     512KiB time=00:00:03.61 bitrate=1159.8kbits/s speed=0.0142x elapsed=0:04:14.06    \nframe=  219 fps=0.9 q=31.3 size=     512KiB time=00:00:03.61 bitrate=1159.8kbits/s speed=0.0142x elapsed=0:04:14.62    \nframe=  219 fps=0.9 q=31.3 size=     512KiB time=00:00:03.61 bitrate=1159.8kbits/s speed=0.0142x elapsed=0:04:15.17    \nframe=  220 fps=0.9 q=34.6 size=     512KiB time=00:00:03.63 bitrate=1154.5kbits/s speed=0.0142x elapsed=0:04:15.69    \nframe=  220 fps=0.9 q=34.6 size=     512KiB time=00:00:03.63 bitrate=1154.5kbits/s speed=0.0142x elapsed=0:04:16.26    \nframe=  220 fps=0.9 q=34.6 size=     512KiB time=00:00:03.63 bitrate=1154.5kbits/s speed=0.0141x elapsed=0:04:16.83    \nframe=  221 fps=0.9 q=36.9 size=     512KiB time=00:00:03.65 bitrate=1149.2kbits/s speed=0.0142x elapsed=0:04:17.39    \nframe=  221 fps=0.9 q=36.9 size=     512KiB time=00:00:03.65 bitrate=1149.2kbits/s speed=0.0142x elapsed=0:04:17.93    \nframe=  221 fps=0.9 q=36.9 size=     512KiB time=00:00:03.65 bitrate=1149.2kbits/s speed=0.0141x elapsed=0:04:18.47    \nframe=  221 fps=0.9 q=36.9 size=     512KiB time=00:00:03.65 bitrate=1149.2kbits/s speed=0.0141x elapsed=0:04:19.01    \nframe=  222 fps=0.9 q=36.9 size=     512KiB time=00:00:03.66 bitrate=1144.0kbits/s speed=0.0141x elapsed=0:04:19.54    \nframe=  222 fps=0.9 q=36.9 size=     512KiB time=00:00:03.66 bitrate=1144.0kbits/s speed=0.0141x elapsed=0:04:20.07    \nframe=  222 fps=0.9 q=36.9 size=     512KiB time=00:00:03.66 bitrate=1144.0kbits/s speed=0.0141x elapsed=0:04:20.60    \nframe=  223 fps=0.9 q=31.9 size=     512KiB time=00:00:03.68 bitrate=1138.8kbits/s speed=0.0141x elapsed=0:04:21.13    \nframe=  223 fps=0.9 q=31.9 size=     512KiB time=00:00:03.68 bitrate=1138.8kbits/s speed=0.0141x elapsed=0:04:21.66    \nframe=  224 fps=0.9 q=34.7 size=     512KiB time=00:00:03.70 bitrate=1133.7kbits/s speed=0.0141x elapsed=0:04:22.19    \nframe=  224 fps=0.9 q=34.7 size=     512KiB time=00:00:03.70 bitrate=1133.7kbits/s speed=0.0141x elapsed=0:04:22.77    \nframe=  225 fps=0.9 q=37.0 size=     512KiB time=00:00:03.71 bitrate=1128.6kbits/s speed=0.0141x elapsed=0:04:23.31    \nframe=  225 fps=0.9 q=37.0 size=     512KiB time=00:00:03.71 bitrate=1128.6kbits/s speed=0.0141x elapsed=0:04:23.81    \nframe=  226 fps=0.9 q=36.9 size=     512KiB time=00:00:03.73 bitrate=1123.6kbits/s speed=0.0141x elapsed=0:04:24.38    \nframe=  226 fps=0.9 q=36.9 size=     512KiB time=00:00:03.73 bitrate=1123.6kbits/s speed=0.0141x elapsed=0:04:24.91    \nframe=  227 fps=0.9 q=31.9 size=     512KiB time=00:00:03.75 bitrate=1118.6kbits/s speed=0.0141x elapsed=0:04:25.49    \nframe=  227 fps=0.9 q=31.9 size=     512KiB time=00:00:03.75 bitrate=1118.6kbits/s speed=0.0141x elapsed=0:04:26.00    \nframe=  228 fps=0.9 q=34.8 size=     512KiB time=00:00:03.76 bitrate=1113.6kbits/s speed=0.0141x elapsed=0:04:26.53    \nframe=  228 fps=0.9 q=34.8 size=     512KiB time=00:00:03.76 bitrate=1113.6kbits/s speed=0.0141x elapsed=0:04:27.10    \nframe=  228 fps=0.9 q=34.8 size=     512KiB time=00:00:03.76 bitrate=1113.6kbits/s speed=0.0141x elapsed=0:04:27.63    \nframe=  228 fps=0.9 q=34.8 size=     512KiB time=00:00:03.76 bitrate=1113.6kbits/s speed=0.014x elapsed=0:04:28.17    \nframe=  228 fps=0.8 q=34.8 size=     512KiB time=00:00:03.76 bitrate=1113.6kbits/s speed=0.014x elapsed=0:04:28.69    \nframe=  229 fps=0.9 q=36.8 size=     512KiB time=00:00:03.78 bitrate=1108.7kbits/s speed=0.0141x elapsed=0:04:29.21    \nframe=  230 fps=0.9 q=36.8 size=     512KiB time=00:00:03.80 bitrate=1103.9kbits/s speed=0.0141x elapsed=0:04:29.77    \nframe=  230 fps=0.9 q=36.8 size=     512KiB time=00:00:03.80 bitrate=1103.9kbits/s speed=0.0141x elapsed=0:04:30.32    \nframe=  230 fps=0.8 q=36.8 size=     512KiB time=00:00:03.80 bitrate=1103.9kbits/s speed=0.014x elapsed=0:04:30.88    \nframe=  230 fps=0.8 q=36.8 size=     512KiB time=00:00:03.80 bitrate=1103.9kbits/s speed=0.014x elapsed=0:04:31.43    \nframe=  231 fps=0.8 q=31.8 size=     512KiB time=00:00:03.81 bitrate=1099.0kbits/s speed=0.014x elapsed=0:04:31.97    \nframe=  231 fps=0.8 q=31.8 size=     512KiB time=00:00:03.81 bitrate=1099.0kbits/s speed=0.014x elapsed=0:04:32.50    \nframe=  231 fps=0.8 q=31.8 size=     512KiB time=00:00:03.81 bitrate=1099.0kbits/s speed=0.014x elapsed=0:04:33.03    \nframe=  231 fps=0.8 q=31.8 size=     512KiB time=00:00:03.81 bitrate=1099.0kbits/s speed=0.014x elapsed=0:04:33.55    \nframe=  232 fps=0.8 q=34.7 size=     512KiB time=00:00:03.83 bitrate=1094.3kbits/s speed=0.014x elapsed=0:04:34.06    \nframe=  232 fps=0.8 q=34.7 size=     512KiB time=00:00:03.83 bitrate=1094.3kbits/s speed=0.014x elapsed=0:04:34.61    \nframe=  232 fps=0.8 q=34.7 size=     512KiB time=00:00:03.83 bitrate=1094.3kbits/s speed=0.0139x elapsed=0:04:35.15    \nframe=  232 fps=0.8 q=34.7 size=     512KiB time=00:00:03.83 bitrate=1094.3kbits/s speed=0.0139x elapsed=0:04:35.67    \nframe=  232 fps=0.8 q=34.7 size=     512KiB time=00:00:03.83 bitrate=1094.3kbits/s speed=0.0139x elapsed=0:04:36.25    \nframe=  233 fps=0.8 q=36.9 size=     512KiB time=00:00:03.85 bitrate=1089.5kbits/s speed=0.0139x elapsed=0:04:36.81    \nframe=  234 fps=0.8 q=36.9 size=     512KiB time=00:00:03.86 bitrate=1084.8kbits/s speed=0.0139x elapsed=0:04:37.35    \nframe=  234 fps=0.8 q=36.9 size=     512KiB time=00:00:03.86 bitrate=1084.8kbits/s speed=0.0139x elapsed=0:04:37.86    \nframe=  235 fps=0.8 q=32.2 size=     512KiB time=00:00:03.88 bitrate=1080.2kbits/s speed=0.0139x elapsed=0:04:38.39    \nframe=  235 fps=0.8 q=32.2 size=     512KiB time=00:00:03.88 bitrate=1080.2kbits/s speed=0.0139x elapsed=0:04:38.91    \nframe=  235 fps=0.8 q=32.2 size=     512KiB time=00:00:03.88 bitrate=1080.2kbits/s speed=0.0139x elapsed=0:04:39.43    \nframe=  236 fps=0.8 q=34.9 size=     512KiB time=00:00:03.90 bitrate=1075.6kbits/s speed=0.0139x elapsed=0:04:39.97    \nframe=  236 fps=0.8 q=34.9 size=     512KiB time=00:00:03.90 bitrate=1075.6kbits/s speed=0.0139x elapsed=0:04:40.49    \nframe=  236 fps=0.8 q=34.9 size=     512KiB time=00:00:03.90 bitrate=1075.6kbits/s speed=0.0139x elapsed=0:04:41.00    \nframe=  237 fps=0.8 q=37.0 size=     512KiB time=00:00:03.91 bitrate=1071.0kbits/s speed=0.0139x elapsed=0:04:41.52    \nframe=  237 fps=0.8 q=37.0 size=     512KiB time=00:00:03.91 bitrate=1071.0kbits/s speed=0.0139x elapsed=0:04:42.04    \nframe=  237 fps=0.8 q=37.0 size=     512KiB time=00:00:03.91 bitrate=1071.0kbits/s speed=0.0139x elapsed=0:04:42.58    \nframe=  237 fps=0.8 q=37.0 size=     512KiB time=00:00:03.91 bitrate=1071.0kbits/s speed=0.0138x elapsed=0:04:43.15    \nframe=  237 fps=0.8 q=37.0 size=     512KiB time=00:00:03.91 bitrate=1071.0kbits/s speed=0.0138x elapsed=0:04:43.67    \nframe=  238 fps=0.8 q=36.9 size=     512KiB time=00:00:03.93 bitrate=1066.4kbits/s speed=0.0138x elapsed=0:04:44.22    \nframe=  239 fps=0.8 q=32.1 size=     512KiB time=00:00:03.95 bitrate=1061.9kbits/s speed=0.0139x elapsed=0:04:44.74    \nframe=  240 fps=0.8 q=34.7 size=     512KiB time=00:00:03.96 bitrate=1057.5kbits/s speed=0.0139x elapsed=0:04:45.26    \nframe=  240 fps=0.8 q=34.7 size=     512KiB time=00:00:03.96 bitrate=1057.5kbits/s speed=0.0139x elapsed=0:04:45.79    \nframe=  240 fps=0.8 q=34.7 size=     512KiB time=00:00:03.96 bitrate=1057.5kbits/s speed=0.0139x elapsed=0:04:46.32    \nframe=  240 fps=0.8 q=34.7 size=     512KiB time=00:00:03.96 bitrate=1057.5kbits/s speed=0.0138x elapsed=0:04:46.87    \nframe=  240 fps=0.8 q=34.7 size=     512KiB time=00:00:03.96 bitrate=1057.5kbits/s speed=0.0138x elapsed=0:04:47.41    \nframe=  241 fps=0.8 q=36.9 size=     512KiB time=00:00:03.98 bitrate=1053.1kbits/s speed=0.0138x elapsed=0:04:47.92    \nframe=  241 fps=0.8 q=36.9 size=     512KiB time=00:00:03.98 bitrate=1053.1kbits/s speed=0.0138x elapsed=0:04:48.45    \nframe=  242 fps=0.8 q=36.8 size=     512KiB time=00:00:04.00 bitrate=1048.7kbits/s speed=0.0138x elapsed=0:04:48.99    \nframe=  242 fps=0.8 q=36.8 size=     512KiB time=00:00:04.00 bitrate=1048.7kbits/s speed=0.0138x elapsed=0:04:49.53    \nframe=  242 fps=0.8 q=36.8 size=     512KiB time=00:00:04.00 bitrate=1048.7kbits/s speed=0.0138x elapsed=0:04:50.06    \nframe=  244 fps=0.8 q=34.9 size=     512KiB time=00:00:04.03 bitrate=1040.0kbits/s speed=0.0139x elapsed=0:04:50.60    \nframe=  244 fps=0.8 q=34.9 size=     512KiB time=00:00:04.03 bitrate=1040.0kbits/s speed=0.0139x elapsed=0:04:51.13    \nframe=  244 fps=0.8 q=34.9 size=     512KiB time=00:00:04.03 bitrate=1040.0kbits/s speed=0.0138x elapsed=0:04:51.66    \nframe=  244 fps=0.8 q=34.9 size=     512KiB time=00:00:04.03 bitrate=1040.0kbits/s speed=0.0138x elapsed=0:04:52.18    \nframe=  245 fps=0.8 q=36.7 size=     512KiB time=00:00:04.05 bitrate=1035.7kbits/s speed=0.0138x elapsed=0:04:52.71    \nframe=  246 fps=0.8 q=36.9 size=     512KiB time=00:00:04.06 bitrate=1031.5kbits/s speed=0.0139x elapsed=0:04:53.22    \nframe=  246 fps=0.8 q=36.9 size=     512KiB time=00:00:04.06 bitrate=1031.5kbits/s speed=0.0138x elapsed=0:04:53.73    \nframe=  246 fps=0.8 q=36.9 size=     512KiB time=00:00:04.06 bitrate=1031.5kbits/s speed=0.0138x elapsed=0:04:54.26    \nframe=  246 fps=0.8 q=36.9 size=     512KiB time=00:00:04.06 bitrate=1031.5kbits/s speed=0.0138x elapsed=0:04:54.80    \nframe=  246 fps=0.8 q=36.9 size=     512KiB time=00:00:04.06 bitrate=1031.5kbits/s speed=0.0138x elapsed=0:04:55.31    \nframe=  247 fps=0.8 q=31.6 size=     512KiB time=00:00:04.08 bitrate=1027.3kbits/s speed=0.0138x elapsed=0:04:55.83    \nframe=  248 fps=0.8 q=35.0 size=     768KiB time=00:00:04.10 bitrate=1534.6kbits/s speed=0.0138x elapsed=0:04:56.36    \nframe=  248 fps=0.8 q=35.0 size=     768KiB time=00:00:04.10 bitrate=1534.6kbits/s speed=0.0138x elapsed=0:04:56.91    \nframe=  248 fps=0.8 q=35.0 size=     768KiB time=00:00:04.10 bitrate=1534.6kbits/s speed=0.0138x elapsed=0:04:57.46    \nframe=  249 fps=0.8 q=36.8 size=     768KiB time=00:00:04.11 bitrate=1528.4kbits/s speed=0.0138x elapsed=0:04:58.06    \nframe=  249 fps=0.8 q=36.8 size=     768KiB time=00:00:04.11 bitrate=1528.4kbits/s speed=0.0138x elapsed=0:04:58.61    \nframe=  249 fps=0.8 q=36.8 size=     768KiB time=00:00:04.11 bitrate=1528.4kbits/s speed=0.0138x elapsed=0:04:59.15    \nframe=  249 fps=0.8 q=36.8 size=     768KiB time=00:00:04.11 bitrate=1528.4kbits/s speed=0.0137x elapsed=0:04:59.69    \nframe=  249 fps=0.8 q=36.8 size=     768KiB time=00:00:04.11 bitrate=1528.4kbits/s speed=0.0137x elapsed=0:05:00.21    \nframe=  250 fps=0.8 q=36.9 size=     768KiB time=00:00:04.13 bitrate=1522.2kbits/s speed=0.0137x elapsed=0:05:00.72    \nframe=  251 fps=0.8 q=27.4 size=     768KiB time=00:00:04.15 bitrate=1516.1kbits/s speed=0.0138x elapsed=0:05:01.23    \nframe=  251 fps=0.8 q=27.4 size=     768KiB time=00:00:04.15 bitrate=1516.1kbits/s speed=0.0138x elapsed=0:05:01.77    \nframe=  251 fps=0.8 q=27.4 size=     768KiB time=00:00:04.15 bitrate=1516.1kbits/s speed=0.0137x elapsed=0:05:02.28    \nframe=  252 fps=0.8 q=31.9 size=     768KiB time=00:00:04.16 bitrate=1510.0kbits/s speed=0.0138x elapsed=0:05:02.79    \nframe=  252 fps=0.8 q=31.9 size=     768KiB time=00:00:04.16 bitrate=1510.0kbits/s speed=0.0137x elapsed=0:05:03.32    \nframe=  252 fps=0.8 q=31.9 size=     768KiB time=00:00:04.16 bitrate=1510.0kbits/s speed=0.0137x elapsed=0:05:03.86    \nframe=  254 fps=0.8 q=36.1 size=     768KiB time=00:00:04.20 bitrate=1498.0kbits/s speed=0.0138x elapsed=0:05:04.40    \nframe=  254 fps=0.8 q=36.1 size=     768KiB time=00:00:04.20 bitrate=1498.0kbits/s speed=0.0138x elapsed=0:05:04.98    \nframe=  254 fps=0.8 q=36.1 size=     768KiB time=00:00:04.20 bitrate=1498.0kbits/s speed=0.0137x elapsed=0:05:05.60    \nframe=  254 fps=0.8 q=36.1 size=     768KiB time=00:00:04.20 bitrate=1498.0kbits/s speed=0.0137x elapsed=0:05:06.14    \nframe=  254 fps=0.8 q=36.1 size=     768KiB time=00:00:04.20 bitrate=1498.0kbits/s speed=0.0137x elapsed=0:05:06.75    \nframe=  254 fps=0.8 q=36.1 size=     768KiB time=00:00:04.20 bitrate=1498.0kbits/s speed=0.0137x elapsed=0:05:07.31    \nframe=  254 fps=0.8 q=36.1 size=     768KiB time=00:00:04.20 bitrate=1498.0kbits/s speed=0.0136x elapsed=0:05:07.83    \nframe=  255 fps=0.8 q=36.2 size=     768KiB time=00:00:04.21 bitrate=1492.1kbits/s speed=0.0137x elapsed=0:05:08.39    \nframe=  256 fps=0.8 q=32.1 size=     768KiB time=00:00:04.23 bitrate=1486.3kbits/s speed=0.0137x elapsed=0:05:08.91    \nframe=  256 fps=0.8 q=32.1 size=     768KiB time=00:00:04.23 bitrate=1486.3kbits/s speed=0.0137x elapsed=0:05:09.47    \nframe=  256 fps=0.8 q=32.1 size=     768KiB time=00:00:04.23 bitrate=1486.3kbits/s speed=0.0137x elapsed=0:05:10.00    \nframe=  256 fps=0.8 q=32.1 size=     768KiB time=00:00:04.23 bitrate=1486.3kbits/s speed=0.0136x elapsed=0:05:10.53    \nframe=  257 fps=0.8 q=33.1 size=     768KiB time=00:00:04.25 bitrate=1480.4kbits/s speed=0.0137x elapsed=0:05:11.06    \nframe=  258 fps=0.8 q=36.2 size=     768KiB time=00:00:04.26 bitrate=1474.6kbits/s speed=0.0137x elapsed=0:05:11.58    \nframe=  259 fps=0.8 q=36.3 size=     768KiB time=00:00:04.28 bitrate=1468.9kbits/s speed=0.0137x elapsed=0:05:12.09    \nframe=  260 fps=0.8 q=36.5 size=     768KiB time=00:00:04.30 bitrate=1463.2kbits/s speed=0.0138x elapsed=0:05:12.62    \nframe=  261 fps=0.8 q=31.9 size=     768KiB time=00:00:04.31 bitrate=1457.6kbits/s speed=0.0138x elapsed=0:05:13.17    \nframe=  261 fps=0.8 q=31.9 size=     768KiB time=00:00:04.31 bitrate=1457.6kbits/s speed=0.0138x elapsed=0:05:13.68    \nframe=  261 fps=0.8 q=31.9 size=     768KiB time=00:00:04.31 bitrate=1457.6kbits/s speed=0.0137x elapsed=0:05:14.19    \nframe=  263 fps=0.8 q=36.2 size=     768KiB time=00:00:04.35 bitrate=1446.4kbits/s speed=0.0138x elapsed=0:05:14.73    \nframe=  264 fps=0.8 q=36.8 size=     768KiB time=00:00:04.36 bitrate=1440.9kbits/s speed=0.0139x elapsed=0:05:15.24    \nframe=  264 fps=0.8 q=36.8 size=     768KiB time=00:00:04.36 bitrate=1440.9kbits/s speed=0.0138x elapsed=0:05:15.76    \nframe=  265 fps=0.8 q=36.9 size=     768KiB time=00:00:04.38 bitrate=1435.4kbits/s speed=0.0139x elapsed=0:05:16.28    \nframe=  265 fps=0.8 q=36.9 size=     768KiB time=00:00:04.38 bitrate=1435.4kbits/s speed=0.0138x elapsed=0:05:16.83    \nframe=  265 fps=0.8 q=36.9 size=     768KiB time=00:00:04.38 bitrate=1435.4kbits/s speed=0.0138x elapsed=0:05:17.35    \nframe=  267 fps=0.8 q=35.1 size=     768KiB time=00:00:04.41 bitrate=1424.6kbits/s speed=0.0139x elapsed=0:05:17.88    \nframe=  267 fps=0.8 q=35.1 size=     768KiB time=00:00:04.41 bitrate=1424.6kbits/s speed=0.0139x elapsed=0:05:18.39    \nframe=  268 fps=0.8 q=37.2 size=     768KiB time=00:00:04.43 bitrate=1419.2kbits/s speed=0.0139x elapsed=0:05:18.92    \nframe=  269 fps=0.8 q=37.2 size=     768KiB time=00:00:04.45 bitrate=1413.9kbits/s speed=0.0139x elapsed=0:05:19.45    \nframe=  269 fps=0.8 q=37.2 size=     768KiB time=00:00:04.45 bitrate=1413.9kbits/s speed=0.0139x elapsed=0:05:19.97    \nframe=  270 fps=0.8 q=31.9 size=     768KiB time=00:00:04.46 bitrate=1408.6kbits/s speed=0.0139x elapsed=0:05:20.49    \nframe=  270 fps=0.8 q=31.9 size=     768KiB time=00:00:04.46 bitrate=1408.6kbits/s speed=0.0139x elapsed=0:05:21.01    \nframe=  270 fps=0.8 q=31.9 size=     768KiB time=00:00:04.46 bitrate=1408.6kbits/s speed=0.0139x elapsed=0:05:21.55    \nframe=  272 fps=0.8 q=36.2 size=     768KiB time=00:00:04.50 bitrate=1398.2kbits/s speed=0.014x elapsed=0:05:22.09    \nframe=  273 fps=0.8 q=36.2 size=     768KiB time=00:00:04.51 bitrate=1393.0kbits/s speed=0.014x elapsed=0:05:22.61    \nframe=  274 fps=0.8 q=36.2 size=     768KiB time=00:00:04.53 bitrate=1387.9kbits/s speed=0.014x elapsed=0:05:23.14    \nframe=  274 fps=0.8 q=36.2 size=     768KiB time=00:00:04.53 bitrate=1387.9kbits/s speed=0.014x elapsed=0:05:23.68    \nframe=  274 fps=0.8 q=36.2 size=     768KiB time=00:00:04.53 bitrate=1387.9kbits/s speed=0.014x elapsed=0:05:24.21    \nframe=  275 fps=0.8 q=31.6 size=     768KiB time=00:00:04.55 bitrate=1382.8kbits/s speed=0.014x elapsed=0:05:24.73    \nframe=  276 fps=0.8 q=35.1 size=     768KiB time=00:00:04.56 bitrate=1377.8kbits/s speed=0.014x elapsed=0:05:25.25    \nframe=  277 fps=0.9 q=37.2 size=     768KiB time=00:00:04.58 bitrate=1372.8kbits/s speed=0.0141x elapsed=0:05:25.77    \nframe=  277 fps=0.8 q=37.2 size=     768KiB time=00:00:04.58 bitrate=1372.8kbits/s speed=0.014x elapsed=0:05:26.28    \nframe=  278 fps=0.9 q=37.1 size=     768KiB time=00:00:04.60 bitrate=1367.8kbits/s speed=0.0141x elapsed=0:05:26.80    \nframe=  279 fps=0.9 q=31.7 size=     768KiB time=00:00:04.61 bitrate=1362.8kbits/s speed=0.0141x elapsed=0:05:27.35    \nframe=  279 fps=0.9 q=31.7 size=     768KiB time=00:00:04.61 bitrate=1362.8kbits/s speed=0.0141x elapsed=0:05:27.86    \nframe=  280 fps=0.9 q=34.8 size=     768KiB time=00:00:04.63 bitrate=1357.9kbits/s speed=0.0141x elapsed=0:05:28.39    \nframe=  282 fps=0.9 q=36.8 size=     768KiB time=00:00:04.66 bitrate=1348.2kbits/s speed=0.0142x elapsed=0:05:28.92    \nframe=  282 fps=0.9 q=36.8 size=     768KiB time=00:00:04.66 bitrate=1348.2kbits/s speed=0.0142x elapsed=0:05:29.46    \nframe=  283 fps=0.9 q=36.5 size=     768KiB time=00:00:04.68 bitrate=1343.4kbits/s speed=0.0142x elapsed=0:05:29.98    \nframe=  283 fps=0.9 q=36.5 size=     768KiB time=00:00:04.68 bitrate=1343.4kbits/s speed=0.0142x elapsed=0:05:30.50    \nframe=  284 fps=0.9 q=30.9 size=     768KiB time=00:00:04.70 bitrate=1338.7kbits/s speed=0.0142x elapsed=0:05:31.02    \nframe=  285 fps=0.9 q=35.8 size=     768KiB time=00:00:04.71 bitrate=1334.0kbits/s speed=0.0142x elapsed=0:05:31.53    \nframe=  286 fps=0.9 q=36.9 size=     768KiB time=00:00:04.73 bitrate=1329.3kbits/s speed=0.0143x elapsed=0:05:32.05    \nframe=  287 fps=0.9 q=37.0 size=     768KiB time=00:00:04.75 bitrate=1324.6kbits/s speed=0.0143x elapsed=0:05:32.57    \nframe=  287 fps=0.9 q=37.0 size=     768KiB time=00:00:04.75 bitrate=1324.6kbits/s speed=0.0143x elapsed=0:05:33.11    \nframe=  287 fps=0.9 q=37.0 size=     768KiB time=00:00:04.75 bitrate=1324.6kbits/s speed=0.0142x elapsed=0:05:33.64    \nframe=  288 fps=0.9 q=31.0 size=     768KiB time=00:00:04.76 bitrate=1320.0kbits/s speed=0.0143x elapsed=0:05:34.15    \nframe=  289 fps=0.9 q=35.2 size=     768KiB time=00:00:04.78 bitrate=1315.4kbits/s speed=0.0143x elapsed=0:05:34.67    \nframe=  291 fps=0.9 q=36.9 size=     768KiB time=00:00:04.81 bitrate=1306.3kbits/s speed=0.0144x elapsed=0:05:35.22    \nframe=  291 fps=0.9 q=36.9 size=     768KiB time=00:00:04.81 bitrate=1306.3kbits/s speed=0.0143x elapsed=0:05:35.77    \nframe=  291 fps=0.9 q=36.9 size=     768KiB time=00:00:04.81 bitrate=1306.3kbits/s speed=0.0143x elapsed=0:05:36.31    \nframe=  293 fps=0.9 q=32.4 size=     768KiB time=00:00:04.85 bitrate=1297.3kbits/s speed=0.0144x elapsed=0:05:36.82    \nframe=  293 fps=0.9 q=32.4 size=     768KiB time=00:00:04.85 bitrate=1297.3kbits/s speed=0.0144x elapsed=0:05:37.33    \nframe=  295 fps=0.9 q=37.7 size=     768KiB time=00:00:04.88 bitrate=1288.4kbits/s speed=0.0145x elapsed=0:05:37.84    \nframe=  295 fps=0.9 q=37.7 size=     768KiB time=00:00:04.88 bitrate=1288.4kbits/s speed=0.0144x elapsed=0:05:38.38    \nframe=  296 fps=0.9 q=37.9 size=     768KiB time=00:00:04.90 bitrate=1284.0kbits/s speed=0.0145x elapsed=0:05:38.89    \nframe=  296 fps=0.9 q=37.9 size=     768KiB time=00:00:04.90 bitrate=1284.0kbits/s speed=0.0144x elapsed=0:05:39.41    \nframe=  297 fps=0.9 q=33.2 size=     768KiB time=00:00:04.91 bitrate=1279.7kbits/s speed=0.0145x elapsed=0:05:39.92    \nframe=  297 fps=0.9 q=33.2 size=     768KiB time=00:00:04.91 bitrate=1279.7kbits/s speed=0.0144x elapsed=0:05:40.44    \n[mp4 @ 000001fd83ef1200] Starting second pass: moving the moov atom to the beginning of the file\n[out#0/mp4 @ 000001fd83eeabc0] video:955KiB audio:0KiB subtitle:0KiB other streams:0KiB global headers:2KiB muxing overhead: 0.718274%\nframe=  300 fps=0.9 q=37.0 Lsize=     962KiB time=00:00:04.96 bitrate=1586.9kbits/s speed=0.0146x elapsed=0:05:40.92    \nx265 [info]: frame I:      2, Avg QP:33.64  kb/s: 4760.16 \nx265 [info]: frame P:     67, Avg QP:30.94  kb/s: 3706.72 \nx265 [info]: frame B:    231, Avg QP:35.41  kb/s: 913.76  \nx265 [info]: Weighted P-Frames: Y:0.0% UV:0.0%\n\nencoded 300 frames in 340.18s (0.88 fps), 1563.16 kb/s, Avg QP:34.40\n",
  "seconds": 341.2148759365082,
  "probe_out": {}
}